<?xml version="1.0" encoding="UTF-8"?>
<svg width="69px" height="103px" viewBox="0 0 69 103" version="1.1" xmlns="http://www.w3.org/2000/svg" xmlns:xlink="http://www.w3.org/1999/xlink">
    <!-- Generator: Sketch 54.1 (76490) - https://sketchapp.com -->
    <title>img_floatLayer_arrow3</title>
    <desc>Created with Sketch.</desc>
    <g id="Design" stroke="none" stroke-width="1" fill="none" fill-rule="evenodd">
        <g id="内容市场/课程详情-发送给好友" transform="translate(-272.000000, -96.000000)" fill="#FFFFFF" fill-rule="nonzero">
            <g id="编组-5" transform="translate(47.000000, 95.452422)">
                <path d="M229.970548,11.2159859 C263.454462,25.2761924 275.738121,40.2541724 266.073285,56.1008946 C259.438341,66.9797245 259.81873,74.5826489 266.494945,80.715533 C272.239731,85.9927905 281.786794,89.9974066 300.317413,95.6401331 C300.845746,95.8010148 301.143624,96.3597336 300.982742,96.8880663 C300.821861,97.4163991 300.263142,97.7142771 299.734809,97.5533954 C280.904539,91.8194228 271.190587,87.7448033 265.141936,82.1884096 C257.700951,75.3529948 257.267895,66.6974165 264.365798,55.0595069 C273.147579,40.6606655 261.660491,26.6714422 229.157169,13.0428632 L227.231887,17.3671186 C227.007252,17.8716559 226.416142,18.0985619 225.911605,17.8739275 C225.769781,17.8107836 225.644607,17.7154867 225.545995,17.5955837 L217.901697,8.30082756 C217.550884,7.8742725 217.612286,7.2440918 218.038841,6.89327956 C218.205954,6.75584082 218.413136,6.67631112 218.629289,6.66662777 L230.651673,6.12804274 C231.203405,6.10332599 231.670708,6.53055577 231.695425,7.08228716 C231.702373,7.23737671 231.673116,7.39195399 231.609972,7.53377744 L229.970548,11.2159859 Z" id="img_floatLayer_arrow3" transform="translate(259.350195, 51.862026) scale(-1, 1) rotate(9.000000) translate(-259.350195, -51.862026) "></path>
            </g>
        </g>
    </g>
</svg>