<?xml version="1.0" encoding="UTF-8"?>
<svg width="796px" height="3px" viewBox="0 0 796 3" version="1.1" xmlns="http://www.w3.org/2000/svg" xmlns:xlink="http://www.w3.org/1999/xlink">
    <!-- Generator: Sketch 51.3 (57544) - http://www.bohemiancoding.com/sketch -->
    <title>img_adrr</title>
    <desc>Created with Sketch.</desc>
    <defs>
        <rect id="path-1" x="0" y="0" width="800" height="3"></rect>
    </defs>
    <g id="Symbols" stroke="none" stroke-width="1" fill="none" fill-rule="evenodd">
        <g id="img_adrr">
            <mask id="mask-2" fill="white">
                <use xlink:href="#path-1"></use>
            </mask>
            <g id="Mask" fill-rule="nonzero"></g>
            <polygon id="Rectangle-8" fill="#E64340" fill-rule="nonzero" mask="url(#mask-2)" points="3 0 12 0 9 3 0 3"></polygon>
            <polygon id="Rectangle-8-Copy-8" fill="#E64340" fill-rule="nonzero" mask="url(#mask-2)" points="131 0 140 0 137 3 128 3"></polygon>
            <polygon id="Rectangle-8-Copy-4" fill="#E64340" fill-rule="nonzero" mask="url(#mask-2)" points="67 0 76 0 73 3 64 3"></polygon>
            <polygon id="Rectangle-8-Copy-9" fill="#E64340" fill-rule="nonzero" mask="url(#mask-2)" points="195 0 204 0 201 3 192 3"></polygon>
            <polygon id="Rectangle-8-Copy-2" fill="#E64340" fill-rule="nonzero" mask="url(#mask-2)" points="35 0 44 0 41 3 32 3"></polygon>
            <polygon id="Rectangle-8-Copy-10" fill="#E64340" fill-rule="nonzero" mask="url(#mask-2)" points="163 0 172 0 169 3 160 3"></polygon>
            <polygon id="Rectangle-8-Copy-5" fill="#E64340" fill-rule="nonzero" mask="url(#mask-2)" points="99 0 108 0 105 3 96 3"></polygon>
            <polygon id="Rectangle-8-Copy-11" fill="#E64340" fill-rule="nonzero" mask="url(#mask-2)" points="227 0 236 0 233 3 224 3"></polygon>
            <polygon id="Rectangle-8-Copy-18" fill="#E64340" fill-rule="nonzero" mask="url(#mask-2)" points="291 0 300 0 297 3 288 3"></polygon>
            <polygon id="Rectangle-8-Copy-25" fill="#E64340" fill-rule="nonzero" mask="url(#mask-2)" points="451 0 460 0 457 3 448 3"></polygon>
            <polygon id="Rectangle-8-Copy-22" fill="#E64340" fill-rule="nonzero" mask="url(#mask-2)" points="355 0 364 0 361 3 352 3"></polygon>
            <polygon id="Rectangle-8-Copy-26" fill="#E64340" fill-rule="nonzero" mask="url(#mask-2)" points="515 0 524 0 521 3 512 3"></polygon>
            <polygon id="Rectangle-8-Copy-35" fill="#E64340" fill-rule="nonzero" mask="url(#mask-2)" points="611 0 620 0 617 3 608 3"></polygon>
            <polygon id="Rectangle-8-Copy-41" fill="#E64340" fill-rule="nonzero" mask="url(#mask-2)" points="739 0 748 0 745 3 736 3"></polygon>
            <polygon id="Rectangle-8-Copy-16" fill="#E64340" fill-rule="nonzero" mask="url(#mask-2)" points="259 0 268 0 265 3 256 3"></polygon>
            <polygon id="Rectangle-8-Copy-27" fill="#E64340" fill-rule="nonzero" mask="url(#mask-2)" points="419 0 428 0 425 3 416 3"></polygon>
            <polygon id="Rectangle-8-Copy-19" fill="#E64340" fill-rule="nonzero" mask="url(#mask-2)" points="323 0 332 0 329 3 320 3"></polygon>
            <polygon id="Rectangle-8-Copy-28" fill="#E64340" fill-rule="nonzero" mask="url(#mask-2)" points="483 0 492 0 489 3 480 3"></polygon>
            <polygon id="Rectangle-8-Copy-36" fill="#E64340" fill-rule="nonzero" mask="url(#mask-2)" points="579 0 588 0 585 3 576 3"></polygon>
            <polygon id="Rectangle-8-Copy-42" fill="#E64340" fill-rule="nonzero" mask="url(#mask-2)" points="707 0 716 0 713 3 704 3"></polygon>
            <polygon id="Rectangle-8-Copy-23" fill="#E64340" fill-rule="nonzero" mask="url(#mask-2)" points="387 0 396 0 393 3 384 3"></polygon>
            <polygon id="Rectangle-8-Copy-29" fill="#E64340" fill-rule="nonzero" mask="url(#mask-2)" points="547 0 556 0 553 3 544 3"></polygon>
            <polygon id="Rectangle-8-Copy-43" fill="#E64340" fill-rule="nonzero" mask="url(#mask-2)" points="675 0 684 0 681 3 672 3"></polygon>
            <polygon id="Rectangle-8-Copy-37" fill="#E64340" fill-rule="nonzero" mask="url(#mask-2)" points="643 0 652 0 649 3 640 3"></polygon>
            <polygon id="Rectangle-8-Copy-44" fill="#E64340" fill-rule="nonzero" mask="url(#mask-2)" points="771 0 780 0 777 3 768 3"></polygon>
            <polygon id="Rectangle-8-Copy" fill="#2A75ED" fill-rule="nonzero" mask="url(#mask-2)" points="19 0 28 0 25 3 16 3"></polygon>
            <polygon id="Rectangle-8-Copy-12" fill="#2A75ED" fill-rule="nonzero" mask="url(#mask-2)" points="147 0 156 0 153 3 144 3"></polygon>
            <polygon id="Rectangle-8-Copy-6" fill="#2A75ED" fill-rule="nonzero" mask="url(#mask-2)" points="83 0 92 0 89 3 80 3"></polygon>
            <polygon id="Rectangle-8-Copy-13" fill="#2A75ED" fill-rule="nonzero" mask="url(#mask-2)" points="211 0 220 0 217 3 208 3"></polygon>
            <polygon id="Rectangle-8-Copy-3" fill="#2A75ED" fill-rule="nonzero" mask="url(#mask-2)" points="51 0 60 0 57 3 48 3"></polygon>
            <polygon id="Rectangle-8-Copy-14" fill="#2A75ED" fill-rule="nonzero" mask="url(#mask-2)" points="179 0 188 0 185 3 176 3"></polygon>
            <polygon id="Rectangle-8-Copy-7" fill="#2A75ED" fill-rule="nonzero" mask="url(#mask-2)" points="115 0 124 0 121 3 112 3"></polygon>
            <polygon id="Rectangle-8-Copy-15" fill="#2A75ED" fill-rule="nonzero" mask="url(#mask-2)" points="243 0 252 0 249 3 240 3"></polygon>
            <polygon id="Rectangle-8-Copy-30" fill="#2A75ED" fill-rule="nonzero" mask="url(#mask-2)" points="403 0 412 0 409 3 400 3"></polygon>
            <polygon id="Rectangle-8-Copy-20" fill="#2A75ED" fill-rule="nonzero" mask="url(#mask-2)" points="307 0 316 0 313 3 304 3"></polygon>
            <polygon id="Rectangle-8-Copy-31" fill="#2A75ED" fill-rule="nonzero" mask="url(#mask-2)" points="467 0 476 0 473 3 464 3"></polygon>
            <polygon id="Rectangle-8-Copy-38" fill="#2A75ED" fill-rule="nonzero" mask="url(#mask-2)" points="563 0 572 0 569 3 560 3"></polygon>
            <polygon id="Rectangle-8-Copy-45" fill="#2A75ED" fill-rule="nonzero" mask="url(#mask-2)" points="691 0 700 0 697 3 688 3"></polygon>
            <polygon id="Rectangle-8-Copy-24" fill="#2A75ED" fill-rule="nonzero" mask="url(#mask-2)" points="371 0 380 0 377 3 368 3"></polygon>
            <polygon id="Rectangle-8-Copy-32" fill="#2A75ED" fill-rule="nonzero" mask="url(#mask-2)" points="531 0 540 0 537 3 528 3"></polygon>
            <polygon id="Rectangle-8-Copy-46" fill="#2A75ED" fill-rule="nonzero" mask="url(#mask-2)" points="659 0 668 0 665 3 656 3"></polygon>
            <polygon id="Rectangle-8-Copy-39" fill="#2A75ED" fill-rule="nonzero" mask="url(#mask-2)" points="627 0 636 0 633 3 624 3"></polygon>
            <polygon id="Rectangle-8-Copy-47" fill="#2A75ED" fill-rule="nonzero" mask="url(#mask-2)" points="755 0 764 0 761 3 752 3"></polygon>
            <polygon id="Rectangle-8-Copy-50" fill="#2A75ED" fill-rule="nonzero" mask="url(#mask-2)" points="787 0 796 0 793 3 784 3"></polygon>
            <polygon id="Rectangle-8-Copy-17" fill="#2A75ED" fill-rule="nonzero" mask="url(#mask-2)" points="275 0 284 0 281 3 272 3"></polygon>
            <polygon id="Rectangle-8-Copy-33" fill="#2A75ED" fill-rule="nonzero" mask="url(#mask-2)" points="435 0 444 0 441 3 432 3"></polygon>
            <polygon id="Rectangle-8-Copy-21" fill="#2A75ED" fill-rule="nonzero" mask="url(#mask-2)" points="339 0 348 0 345 3 336 3"></polygon>
            <polygon id="Rectangle-8-Copy-34" fill="#2A75ED" fill-rule="nonzero" mask="url(#mask-2)" points="499 0 508 0 505 3 496 3"></polygon>
            <polygon id="Rectangle-8-Copy-40" fill="#2A75ED" fill-rule="nonzero" mask="url(#mask-2)" points="595 0 604 0 601 3 592 3"></polygon>
            <polygon id="Rectangle-8-Copy-48" fill="#2A75ED" fill-rule="nonzero" mask="url(#mask-2)" points="723 0 732 0 729 3 720 3"></polygon>
        </g>
    </g>
</svg>