<?xml version="1.0" encoding="UTF-8"?>
<svg width="240px" height="220px" viewBox="0 0 240 220" version="1.1" xmlns="http://www.w3.org/2000/svg" xmlns:xlink="http://www.w3.org/1999/xlink">
    <!-- Generator: Sketch 55.2 (78181) - https://sketchapp.com -->
    <title>emptypage_3备份@2x</title>
    <desc>Created with Sketch.</desc>
    <defs>
        <rect id="path-1" x="0" y="0" width="240" height="220"></rect>
        <linearGradient x1="50%" y1="0%" x2="50%" y2="26.3264982%" id="linearGradient-3">
            <stop stop-color="#E1E1EC" offset="0%"></stop>
            <stop stop-color="#FFFFFF" stop-opacity="0" offset="100%"></stop>
        </linearGradient>
        <linearGradient x1="50%" y1="-11.1760471%" x2="50%" y2="94.3419726%" id="linearGradient-4">
            <stop stop-color="#C8C8DA" stop-opacity="0.98" offset="0%"></stop>
            <stop stop-color="#F7F7FB" offset="100%"></stop>
        </linearGradient>
        <linearGradient x1="50%" y1="0%" x2="50%" y2="157.033672%" id="linearGradient-5">
            <stop stop-color="#E5E5EB" offset="0%"></stop>
            <stop stop-color="#F4F4F7" offset="100%"></stop>
        </linearGradient>
        <linearGradient x1="50%" y1="0%" x2="50%" y2="136.18204%" id="linearGradient-6">
            <stop stop-color="#E2E2E9" offset="0%"></stop>
            <stop stop-color="#F3F3F6" offset="100%"></stop>
        </linearGradient>
    </defs>
    <g id="优惠券界面" stroke="none" stroke-width="1" fill="none" fill-rule="evenodd">
        <g id="缺省页" transform="translate(-67.000000, -454.000000)">
            <g id="动作栏弹出" transform="translate(0.000000, 300.000000)">
                <g id="emptypage_3备份" transform="translate(67.000000, 154.000000)">
                    <g id="编组-3">
                        <mask id="mask-2" fill="white">
                            <use xlink:href="#path-1"></use>
                        </mask>
                        <use id="Mask" fill="#F2F4F6" opacity="0" xlink:href="#path-1"></use>
                        <ellipse id="椭圆形" fill="url(#linearGradient-3)" mask="url(#mask-2)" cx="120" cy="225" rx="137" ry="109"></ellipse>
                        <ellipse id="椭圆形" fill="#D7D7E5" mask="url(#mask-2)" cx="101.5" cy="131" rx="14.5" ry="2"></ellipse>
                        <path d="M153,17 C156.313,17 159,19.687 159,23 L159,119 C159,122.313 156.313,125 153,125 L128.139,125 C127.329,125 126.632,124.492 126.303,123.752 C125.059,120.953 122.261,119 119,119 C115.739,119 112.941,120.953 111.697,123.752 C111.368,124.492 110.671,125 109.861,125 L85,125 C81.687,125 79,122.313 79,119 L79,23 C79,19.687 81.687,17 85,17 L109.861,17 C110.671,17 111.368,17.508 111.697,18.248 C112.941,21.047 115.739,23 119,23 C122.261,23 125.059,21.047 126.303,18.248 C126.632,17.508 127.329,17 128.139,17 L153,17 Z M89.5,47 C88.6715729,47 88,47.6715729 88,48.5 C88,49.3284271 88.6715729,50 89.5,50 L95.5,50 C96.3284271,50 97,49.3284271 97,48.5 C97,47.6715729 96.3284271,47 95.5,47 L89.5,47 Z M106.5,47 C105.671573,47 105,47.6715729 105,48.5 C105,49.3284271 105.671573,50 106.5,50 L113.5,50 C114.328427,50 115,49.3284271 115,48.5 C115,47.6715729 114.328427,47 113.5,47 L106.5,47 Z M124.5,47 C123.671573,47 123,47.6715729 123,48.5 C123,49.3284271 123.671573,50 124.5,50 L131.5,50 C132.328427,50 133,49.3284271 133,48.5 C133,47.6715729 132.328427,47 131.5,47 L124.5,47 Z M142.5,47 C141.671573,47 141,47.6715729 141,48.5 C141,49.3284271 141.671573,50 142.5,50 L148.5,50 C149.328427,50 150,49.3284271 150,48.5 C150,47.6715729 149.328427,47 148.5,47 L142.5,47 Z M115.516,82.67 C115.074,84.022 114.476,85.114 113.696,85.946 C112.656,86.96 111.174,87.896 109.198,88.754 L110.758,90.704 C112.968,89.638 114.632,88.442 115.75,87.09 C116.608,85.998 117.31,84.516 117.83,82.67 L123.706,82.67 C123.602,85.01 123.368,86.518 123.056,87.246 C122.744,87.922 122.12,88.286 121.132,88.286 C120.014,88.286 118.818,88.234 117.518,88.182 L118.168,90.496 L122.328,90.496 C123.368,90.444 124.148,90.106 124.642,89.534 C125.136,88.936 125.5,87.896 125.708,86.388 C125.864,85.036 125.994,83.346 126.072,81.266 C127.06,82.072 128.204,82.852 129.504,83.606 L131.116,81.604 C128.412,80.356 126.41,78.978 125.136,77.444 L130.258,77.444 L130.258,75.208 L117.674,75.208 C118.09,74.454 118.48,73.674 118.844,72.868 L128.828,72.868 L128.828,70.684 L125.188,70.684 C125.942,69.696 126.592,68.526 127.138,67.226 L125.084,66.498 C124.564,67.85 123.914,69.02 123.108,70.06 L124.252,70.684 L119.65,70.684 C120.04,69.436 120.352,68.136 120.612,66.732 L118.168,66.42 C117.934,67.928 117.596,69.332 117.154,70.684 L113.696,70.684 L115.048,70.06 C114.528,68.838 113.93,67.694 113.254,66.602 L111.122,67.304 C111.746,68.292 112.37,69.41 112.942,70.684 L109.172,70.684 L109.172,72.868 L116.27,72.868 C115.88,73.674 115.438,74.454 114.944,75.208 L107.742,75.208 L107.742,77.444 L113.15,77.444 C111.46,79.212 109.38,80.616 106.884,81.682 L108.236,83.762 C109.692,83.06 111.018,82.254 112.266,81.318 L112.266,82.67 L115.516,82.67 Z M116.166,77.444 L122.562,77.444 C123.186,78.432 124.018,79.42 125.058,80.382 L113.41,80.382 C114.398,79.498 115.334,78.51 116.166,77.444 Z" id="形状结合" fill="url(#linearGradient-4)" mask="url(#mask-2)" transform="translate(119.000000, 71.000000) rotate(-12.000000) translate(-119.000000, -71.000000) "></path>
                        <g id="分组-6" mask="url(#mask-2)">
                            <g transform="translate(157.000000, 105.000000)">
                                <path d="M10,12.4115341 C10,9.51885196 8.61710757,5.82834534 5.85132272,1.34001428 L5.85129486,1.34003145 C5.56156959,0.869863667 4.94555455,0.723586109 4.47538677,1.01331138 C4.34246724,1.09521862 4.23057369,1.20711221 4.1486665,1.34003177 C1.38288883,5.82835492 0,9.51885571 0,12.4115341 C0,17.1749901 10,17.1749901 10,12.4115341 Z" id="椭圆形" fill="url(#linearGradient-5)"></path>
                                <rect id="矩形" fill="#D7D7E5" x="4.375" y="11.5" width="1.25" height="11.5" rx="0.625"></rect>
                            </g>
                        </g>
                        <path d="M185,113.965264 C185,108.853926 182.276176,102.267899 176.828529,94.2071837 L176.828527,94.2071852 C176.51928,93.7496016 175.89764,93.6293512 175.440057,93.9385985 C175.33419,94.0101457 175.243017,94.1013191 175.17147,94.2071853 C169.723823,102.2679 167,108.853926 167,113.965264 C167,122.011579 185,122.011579 185,113.965264 Z" id="椭圆形-copy" fill="url(#linearGradient-6)" mask="url(#mask-2)"></path>
                        <rect id="矩形-copy" fill="#D7D7E5" mask="url(#mask-2)" x="175" y="111" width="2" height="18" rx="1"></rect>
                    </g>
                </g>
            </g>
        </g>
    </g>
</svg>