<?xml version="1.0" encoding="UTF-8"?>
<svg width="7px" height="12px" viewBox="0 0 7 12" version="1.1" xmlns="http://www.w3.org/2000/svg" xmlns:xlink="http://www.w3.org/1999/xlink">
    <!-- Generator: Sketch 60 (88103) - https://sketch.com -->
    <title>编组 22备份</title>
    <desc>Created with Sketch.</desc>
    <g id="页面-1" stroke="none" stroke-width="1" fill="none" fill-rule="evenodd">
        <g id="实时视频-直播中备份-18" transform="translate(-72.000000, -537.000000)" fill="#D4D4D4" stroke="#D4D4D4" stroke-width="0.5">
            <g id="编组-6备份" transform="translate(16.000000, 525.000000)">
                <g id="编组-22备份" transform="translate(62.000000, 18.000000) scale(-1, 1) rotate(-270.000000) translate(-62.000000, -18.000000) translate(56.000000, 12.000000)">
                    <path d="M9.63636364,2 C9.83719445,2 10,2.16280555 10,2.36363636 L9.999,2.372 L10,9.63636364 C10,9.83719445 9.83719445,10 9.63636364,10 C9.43553282,10 9.27272727,9.83719445 9.27272727,9.63636364 L9.272,2.727 L2.36363636,2.72727273 C2.16280555,2.72727273 2,2.56446718 2,2.36363636 C2,2.16280555 2.16280555,2 2.36363636,2 L9.63636364,2 Z" id="Combined-Shape" transform="translate(6.000000, 6.000000) rotate(-45.000000) translate(-6.000000, -6.000000) "></path>
                </g>
            </g>
        </g>
    </g>
</svg>