<?xml version="1.0" encoding="UTF-8"?>
<svg width="38px" height="38px" viewBox="0 0 38 38" version="1.1" xmlns="http://www.w3.org/2000/svg" xmlns:xlink="http://www.w3.org/1999/xlink">
    <title>矩形备份 6</title>
    <g id="学员端" stroke="none" stroke-width="1" fill="none" fill-rule="evenodd">
        <g id="更多-我的奖品" transform="translate(-172.000000, -580.000000)" fill="#666666">
            <g id="图文回答" transform="translate(0.000000, 501.000000)">
                <g id="编组-17" transform="translate(162.000000, 69.000000)">
                    <g id="编组-22" transform="translate(10.000000, 10.000000)">
                        <path d="M29.5487318,18.2756305 C29.5487318,18.7585562 29.0689812,19.2414438 28.5891927,19.2414438 L19.6296916,19.2414438 L19.6296916,14.4124537 L28.5891927,14.4124537 C29.0689812,14.4124537 29.5487318,14.8953794 29.5487318,15.378267 L29.5487318,18.2756305 Z M26.9939917,29.70823 L19.6416702,29.70823 L19.6416702,20.6901446 L27.7975815,20.6901446 L27.7975815,28.7424549 C27.9535308,29.2253424 27.4737423,29.70823 26.9939917,29.70823 Z M10.0344906,28.7424549 L10.0344906,20.6901446 L18.190402,20.6901446 L18.190402,29.70823 L10.9939917,29.70823 C10.5142412,29.70823 10.0344906,29.2253424 10.0344906,28.7424549 Z M8.43928962,18.2756305 L8.43928962,15.378267 C8.43928962,14.8953794 8.9190402,14.4124537 9.39879077,14.4124537 L18.3583298,14.4124537 L18.3583298,19.2414438 L9.39879077,19.2414438 C8.76312884,19.2414438 8.43928962,18.915487 8.43928962,18.2756305 Z M16.1154504,8.46075775 C17.3987908,8.46075775 18.3583298,9.42657103 18.3583298,10.7183029 L18.3583298,12.9637911 L16.1154504,12.9637911 C14.8320721,12.9637911 13.872571,11.9979778 13.872571,10.7062459 C13.872571,9.41447594 14.8320721,8.46075775 16.1154504,8.46075775 Z M21.872571,8.46075775 C23.1559114,8.46075775 24.1154504,9.42657103 24.1154504,10.7183029 C24.1154504,12.0100729 23.1559114,12.9637911 21.872571,12.9637911 L19.6296916,12.9637911 L19.6296916,10.7062459 C19.6296916,9.42657103 20.7571206,8.46075775 21.872571,8.46075775 Z M7,18.2756305 C7,19.3983746 7.63569983,20.2072189 8.76312884,20.5331756 L8.76312884,28.7424549 C8.76312884,30.0341867 9.72262999,31 11.0060083,31 L26.9939917,31 C28.27737,31 29.2368712,30.0341867 29.2368712,28.7424549 L29.2368712,20.6901446 C30.3523216,20.3641879 31,19.3983746 31,18.2756305 L31,15.378267 C31,14.086497 29.8845496,12.9637911 28.6012092,12.9637911 L24.7631288,12.9637911 C25.2428794,12.3239345 25.5667186,11.5150902 25.5667186,10.7062459 C25.5667186,8.61768858 23.9715177,7 21.8845496,7 C20.7690992,7 19.6416702,7.63985654 19.0060083,8.44870083 C18.3703084,7.63985654 17.2428794,7 16.127429,7 C14.0404609,7.01205693 12.4332814,8.61768858 12.4332814,10.7062459 C12.4332814,11.5150902 12.7571206,12.3239345 13.2368712,12.9637911 L9.39879077,12.9637911 C8.11545041,12.9637911 7,14.086497 7,15.378267 L7,18.2756305 Z" id="Fill-1"></path>
                    </g>
                </g>
            </g>
        </g>
    </g>
</svg>