<?xml version="1.0" encoding="UTF-8"?>
<svg width="155px" height="80px" viewBox="0 0 155 80" version="1.1" xmlns="http://www.w3.org/2000/svg" xmlns:xlink="http://www.w3.org/1999/xlink">
    <!-- Generator: Sketch 60 (88103) - https://sketch.com -->
    <title>编组</title>
    <desc>Created with Sketch.</desc>
    <defs>
        <linearGradient x1="50%" y1="0%" x2="50%" y2="100%" id="linearGradient-1">
            <stop stop-color="#FFB074" offset="0%"></stop>
            <stop stop-color="#FF9849" offset="100%"></stop>
        </linearGradient>
        <path d="M132.682976,0 C131.757567,0 130.864208,0.46 130.414189,1.26666667 C129.594275,2.73866667 128.09733,3.79866667 126.29058,3.97333333 C124.117939,4.188 122.134921,3.064 121.132061,1.27866667 C120.676702,0.469333333 119.787348,0 118.856598,0 L5.34146341,0 C2.39164024,0 0,2.388 0,5.33333333 L0,74.6666667 C0,77.612 2.39164024,80 5.34146341,80 L118.856598,80 C119.782006,80 120.674031,79.54 121.125385,78.7333333 C121.945299,77.2613333 123.442244,76.2013333 125.247659,76.0266667 C127.420299,75.812 129.403317,76.936 130.407513,78.7213333 C130.862872,79.5306667 131.750891,80 132.681641,80 L149.658537,80 C152.60836,80 155,77.612 155,74.6666667 L155,5.33333333 C155,2.388 152.60836,0 149.658537,0 L132.682976,0 Z" id="path-2"></path>
        <linearGradient x1="100%" y1="50%" x2="0%" y2="50%" id="linearGradient-4">
            <stop stop-color="#FF9849" offset="0%"></stop>
            <stop stop-color="#FFB074" offset="100%"></stop>
        </linearGradient>
    </defs>
    <g id="页面-1" stroke="none" stroke-width="1" fill="none" fill-rule="evenodd">
        <g id="优惠券样式汇总" transform="translate(-194.000000, -274.000000)">
            <g id="编组-10备份-9" transform="translate(194.000000, 274.000000)">
                <g id="编组">
                    <mask id="mask-3" fill="white">
                        <use xlink:href="#path-2"></use>
                    </mask>
                    <path stroke="url(#linearGradient-1)" stroke-width="1.33333333" d="M132.682976,0.666666667 C131.966292,0.666666667 131.313427,1.02315862 130.996602,1.59107449 C130.046176,3.29738138 128.332693,4.44568772 126.35613,4.63676952 C123.967514,4.87277561 121.707484,3.66431027 120.551045,1.60556735 C120.225894,1.02766102 119.572301,0.666666667 118.856598,0.666666667 L5.34146341,0.666666667 C2.75960294,0.666666667 0.666666667,2.75641735 0.666666667,5.33333333 L0.666666667,74.6666667 C0.666666667,77.2435827 2.75960294,79.3333333 5.34146341,79.3333333 L118.856598,79.3333333 C119.572908,79.3333333 120.225077,78.9770707 120.542972,78.4089255 C121.493278,76.7028325 123.206617,75.55435 125.182108,75.3632305 C127.570479,75.1272487 129.830405,76.3354331 130.988529,78.3944327 C131.313857,78.9726533 131.96633,79.3333333 132.681641,79.3333333 L149.658537,79.3333333 C152.240397,79.3333333 154.333333,77.2435827 154.333333,74.6666667 L154.333333,5.33333333 C154.333333,2.75641735 152.240397,0.666666667 149.658537,0.666666667 L132.682976,0.666666667 Z"></path>
                    <rect id="矩形" fill="url(#linearGradient-4)" fill-rule="nonzero" mask="url(#mask-3)" x="0" y="0" width="155" height="80"></rect>
                </g>
            </g>
        </g>
    </g>
</svg>