<?xml version="1.0" encoding="UTF-8"?>
<svg width="72px" height="70px" viewBox="0 0 72 70" version="1.1" xmlns="http://www.w3.org/2000/svg" xmlns:xlink="http://www.w3.org/1999/xlink">
    <!-- Generator: Sketch 57.1 (83088) - https://sketch.com -->
    <title>优惠券</title>
    <desc>Created with Sketch.</desc>
    <g id="页面-1" stroke="none" stroke-width="1" fill="none" fill-rule="evenodd" opacity="0.800000012">
        <g id="优惠券列表为空" transform="translate(-152.000000, -508.000000)" fill="#FFE2DD" fill-rule="nonzero">
            <g id="动作栏弹出" transform="translate(0.000000, 299.000000)">
                <g id="优惠券" transform="translate(152.000000, 209.000000)">
                    <path d="M72,33.9546859 L72,17.9320288 C72,16.8274593 71.1045695,15.9320288 70,15.9320288 L62.856,15.9320288 L62.856,15.9320288 L59.0904621,1.92814042 C58.803982,0.862732171 57.7088778,0.230526471 56.6429878,0.51520903 L1.48392119,15.2473342 C0.608785611,15.4810692 4.60673889e-15,16.2737915 0,17.1796029 L0,68 C1.3527075e-16,69.1045695 0.8954305,70 2,70 L14.4,70 L14.4,70 L14.4,59.1864058 L18,59.1864058 L18,70 L70,70 C71.1045695,70 72,69.1045695 72,68 L72,48.3728115 L72,48.3728115 C68.0235498,48.3728115 64.8,45.1452042 64.8,41.1637487 C64.8,37.1822933 68.0235498,33.9546859 72,33.9546859 Z M18,55.5818744 L14.4,55.5818744 L14.4,44.7682801 L18,44.7682801 L18,55.5818744 Z M18,41.1637487 L14.4,41.1637487 L14.4,30.3501545 L18,30.3501545 L18,41.1637487 Z M18,26.7456231 L14.4,26.7456231 L14.4,15.9320288 L18,15.9320288 L18,26.7456231 Z M26.928,15.9320288 L53.46,8.72296601 L55.368,15.9320288 L26.928,15.9320288 Z" id="形状"></path>
                </g>
            </g>
        </g>
    </g>
</svg>