<?xml version="1.0" encoding="UTF-8"?>
<svg width="64px" height="83px" viewBox="0 0 64 83" version="1.1" xmlns="http://www.w3.org/2000/svg" xmlns:xlink="http://www.w3.org/1999/xlink">
    <!-- Generator: Sketch 60 (88103) - https://sketch.com -->
    <title>编组 11</title>
    <desc>Created with Sketch.</desc>
    <g id="页面-1" stroke="none" stroke-width="1" fill="none" fill-rule="evenodd">
        <g id="上传PPT为空的情况" transform="translate(-156.000000, -442.000000)" fill-rule="nonzero">
            <g id="图文回答" transform="translate(0.000000, 212.000000)">
                <g id="编组-11" transform="translate(156.000000, 230.000000)">
                    <path d="M44.3733333,0 L2.12951244,0 C0.953404407,0 0,0.960852878 0,2.82534755 L0,80.6823028 C0,81.1884009 0.953404407,82.1492537 2.12951244,82.1492537 L61.5361592,82.1492537 C62.7122672,82.1492537 63.6656716,81.1884009 63.6656716,80.6823028 L63.6656716,19.0380896 C63.6656716,18.0170917 63.5303028,17.6884947 63.2915878,17.4464478 L45.2787036,0.377006397 C45.038533,0.136426439 44.7124833,0 44.3733333,0 Z" id="路径" fill="#FFEBE7"></path>
                    <path d="M13.8,55 L13.8,41 L18.4347574,41 C20.1910953,41 21.3359502,41.0700311 21.8693565,41.2100955 C22.6889809,41.420192 23.3752434,41.876986 23.9281646,42.5804911 C24.4810857,43.2839962 24.7575422,44.1928093 24.7575422,45.3069577 C24.7575422,46.1664436 24.5981732,46.8890375 24.2794304,47.4747613 C23.9606876,48.060485 23.5557602,48.5204622 23.0646361,48.8547067 C22.573512,49.1889512 22.0742641,49.4101859 21.5668776,49.5184175 C20.8773524,49.6521153 19.8788567,49.7189632 18.5713608,49.7189632 L16.6881857,49.7189632 L16.6881857,55 L13.8,55 Z M16.6881857,43.3683492 L16.6881857,47.3410641 L18.2688819,47.3410641 C19.407249,47.3410641 20.1683173,47.2678498 20.5521097,47.1214188 C20.9359021,46.9749879 21.2367517,46.7457951 21.4546677,46.4338336 C21.6725837,46.121872 21.7815401,45.7589834 21.7815401,45.3451569 C21.7815401,44.8358319 21.6286759,44.4156451 21.322943,44.0845839 C21.0172101,43.7535227 20.6301711,43.5466125 20.1618143,43.4638472 C19.8170517,43.4001816 19.1242844,43.3683492 18.0834916,43.3683492 L16.6881857,43.3683492 Z M27.1285865,55 L27.1285865,41 L31.7633439,41 C33.5196818,41 34.6645367,41.0700311 35.197943,41.2100955 C36.0175674,41.420192 36.7038299,41.876986 37.2567511,42.5804911 C37.8096722,43.2839962 38.0861287,44.1928093 38.0861287,45.3069577 C38.0861287,46.1664436 37.9267597,46.8890375 37.6080169,47.4747613 C37.2892741,48.060485 36.8843467,48.5204622 36.3932226,48.8547067 C35.9020985,49.1889512 35.4028506,49.4101859 34.8954641,49.5184175 C34.2059389,49.6521153 33.2074432,49.7189632 31.8999473,49.7189632 L30.0167722,49.7189632 L30.0167722,55 L27.1285865,55 Z M30.0167722,43.3683492 L30.0167722,47.3410641 L31.5974684,47.3410641 C32.7358355,47.3410641 33.4969038,47.2678498 33.8806962,47.1214188 C34.2644886,46.9749879 34.5653382,46.7457951 34.7832542,46.4338336 C35.0011702,46.121872 35.1101266,45.7589834 35.1101266,45.3451569 C35.1101266,44.8358319 34.9572624,44.4156451 34.6515295,44.0845839 C34.3457966,43.7535227 33.9587576,43.5466125 33.4904008,43.4638472 C33.1456382,43.4001816 32.4528709,43.3683492 31.4120781,43.3683492 L30.0167722,43.3683492 Z M43.6771097,55 L43.6771097,43.3683492 L39.4326477,43.3683492 L39.4326477,41 L50.8,41 L50.8,43.3683492 L46.5652954,43.3683492 L46.5652954,55 L43.6771097,55 Z" id="PPT" fill="#F73E41" opacity="0.400000006"></path>
                    <polygon id="路径" fill="#FFD9D1" points="45.1287383 0.23422508 45.1287383 17.616127 63.6656716 17.616127"></polygon>
                </g>
            </g>
        </g>
    </g>
</svg>