<?xml version="1.0" encoding="UTF-8"?>
<svg width="64px" height="83px" viewBox="0 0 64 83" version="1.1" xmlns="http://www.w3.org/2000/svg" xmlns:xlink="http://www.w3.org/1999/xlink">
    <!-- Generator: Sketch 60 (88103) - https://sketch.com -->
    <title>编组 11</title>
    <desc>Created with Sketch.</desc>
    <g id="页面-1" stroke="none" stroke-width="1" fill="none" fill-rule="evenodd">
        <g id="上传图片为空的情况" transform="translate(-156.000000, -442.000000)" fill-rule="nonzero">
            <g id="图文回答" transform="translate(0.000000, 212.000000)">
                <g id="编组-11" transform="translate(156.000000, 230.000000)">
                    <path d="M44.3733333,0 L2.12951244,0 C0.953404407,0 0,0.960852878 0,2.82534755 L0,80.6823028 C0,81.1884009 0.953404407,82.1492537 2.12951244,82.1492537 L61.5361592,82.1492537 C62.7122672,82.1492537 63.6656716,81.1884009 63.6656716,80.6823028 L63.6656716,19.0380896 C63.6656716,18.0170917 63.5303028,17.6884947 63.2915878,17.4464478 L45.2787036,0.377006397 C45.038533,0.136426439 44.7124833,0 44.3733333,0 Z" id="路径" fill="#E6EEFF"></path>
                    <g id="图片" opacity="0.400000006" transform="translate(20.000000, 36.000000)" fill="#6C9BFF">
                        <path d="M2.52276668,1.42589782 L21.6078606,1.42589782 C22.1562829,1.42589782 22.5950206,1.86463561 22.5950206,2.41305785 L22.5950206,10.2006537 C21.6078606,9.43286252 19.743225,8.22633359 18.3173272,8.22633359 C16.2333227,8.22633359 14.3686871,13.0524493 12.0653136,13.0524493 C10.3103625,12.9427649 7.89730462,10.9684448 5.15519343,11.2974981 C4.05834895,11.516867 2.52276668,13.2718182 1.53560665,14.5880316 L1.53560665,2.41305785 C1.53560665,1.86463561 1.97434444,1.42589782 2.52276668,1.42589782 Z M7.12948911,9.32317807 C6.25201353,9.32317807 5.4842224,8.99412473 4.93580016,8.44570249 C4.38737792,7.89728025 4.05832457,7.01980467 4.05832457,6.25201353 C4.05832457,5.4842224 4.38737792,4.60674681 4.93580016,4.05832457 C5.4842224,3.50990233 6.25201353,3.18084899 7.12948911,3.18084899 C7.89728025,3.18084899 8.66507138,3.50990233 9.32317807,4.05832457 C9.87160031,4.60674681 10.2006537,5.4842224 10.2006537,6.25201353 C10.2006537,7.01980467 9.87160031,7.89728025 9.32317807,8.44570249 C8.66507138,8.99412473 7.89728025,9.32317807 7.12948911,9.32317807 Z M22.1562585,0 L1.97432006,0 C0.877475583,0 0,0.877475583 0,1.97432006 L0,19.9625695 C0,21.059414 0.877475583,21.9368896 1.97432006,21.9368896 L22.1562585,21.9368896 C23.253103,21.9368896 24.1305785,21.059414 24.1305785,19.9625695 L24.1305785,1.97432006 C24.1305785,0.877475583 23.253103,0 22.1562585,0 Z" id="形状"></path>
                    </g>
                    <polygon id="路径" fill="#C5D8FF" points="45.1287383 0.23422508 45.1287383 17.616127 63.6656716 17.616127"></polygon>
                </g>
            </g>
        </g>
    </g>
</svg>