<?xml version="1.0" encoding="UTF-8"?>
<svg width="64px" height="83px" viewBox="0 0 64 83" version="1.1" xmlns="http://www.w3.org/2000/svg" xmlns:xlink="http://www.w3.org/1999/xlink">
    <!-- Generator: Sketch 60 (88103) - https://sketch.com -->
    <title>pdf</title>
    <desc>Created with Sketch.</desc>
    <g id="页面-1" stroke="none" stroke-width="1" fill="none" fill-rule="evenodd">
        <g id="上传音频为空的情况" transform="translate(-156.000000, -442.000000)" fill-rule="nonzero">
            <g id="图文回答" transform="translate(0.000000, 212.000000)">
                <g id="pdf" transform="translate(156.000000, 230.000000)">
                    <path d="M44.6063516,0 L2.14069517,0 C0.958411031,0 0,0.965898618 0,2.84018433 L0,81.1059908 C0,81.6147465 0.958411031,82.5806452 2.14069517,82.5806452 L61.8593048,82.5806452 C63.041589,82.5806452 64,81.6147465 64,81.1059908 L64,19.1380645 C64,18.1117051 63.8639203,17.7813825 63.6239517,17.5380645 L45.5164763,0.378986175 C45.2750445,0.137142857 44.9472825,0 44.6063516,0 Z" id="路径" fill="#E6F5F2"></path>
                    <path d="M43.0102312,33.8644998 L37.374556,27.3446154 C36.9061134,26.805302 36.1041367,26.6805314 35.4869615,27.0509457 C34.990803,27.2494063 34.6667138,27.7206063 34.6665784,28.2437178 L34.6665784,45.401821 C33.1256316,44.1148565 31.1628933,43.4092369 29.1343429,43.4129397 C24.4474586,43.4129397 20.6451613,47.0970327 20.6451613,51.6419537 C20.6451613,56.1868747 24.4446051,59.8709677 29.1343429,59.8709677 C33.8240806,59.8709677 37.6235244,56.1868747 37.6235244,51.6419537 C37.6235244,51.4067396 37.6128238,51.1743091 37.5928492,50.946054 C37.6130718,50.8559884 37.6233554,50.7640701 37.6235244,50.6718695 L37.6235244,32.0426343 L40.7759356,35.6884529 C41.2970014,36.2886681 42.2167649,36.3666476 42.8361673,35.8631238 C43.1321313,35.6213578 43.3169555,35.2743731 43.3496341,34.8991533 C43.3823127,34.5239335 43.2601434,34.1515062 43.0102312,33.8644998 L43.0102312,33.8644998 Z" id="路径" fill="#75CAB9" opacity="0.400000006"></path>
                    <polygon id="路径" fill="#C7EBE1" points="45.3657234 0.235455069 45.3657234 17.7086348 64 17.7086348"></polygon>
                </g>
            </g>
        </g>
    </g>
</svg>