<?xml version="1.0" encoding="UTF-8"?>
<svg width="120px" height="120px" viewBox="0 0 120 120" version="1.1" xmlns="http://www.w3.org/2000/svg" xmlns:xlink="http://www.w3.org/1999/xlink">
    <!-- Generator: Sketch 51 (57462) - http://www.bohemiancoding.com/sketch -->
    <title>icons/ppt</title>
    <desc>Created with Sketch.</desc>
    <defs></defs>
    <g id="icons/ppt" stroke="none" stroke-width="1" fill="none" fill-rule="evenodd">
        <g fill-rule="nonzero">
            <rect id="Rectangle-2" fill="#FFFFFF" x="0" y="0" width="120" height="120" rx="8"></rect>
            <path d="M7.5,0 L112.5,0 C116.642136,-7.60897969e-16 120,3.35786438 120,7.5 L120,112.5 C120,116.642136 116.642136,120 112.5,120 L7.5,120 C3.35786438,120 5.07265312e-16,116.642136 0,112.5 L0,7.5 C-5.07265312e-16,3.35786438 3.35786438,7.60897969e-16 7.5,0 Z M43,37 L43,83 L49.3491339,83 L49.3491339,63.5541183 L64.0893345,63.5541183 C68.8113273,63.5541183 72.3102287,62.2232942 74.5861441,59.5616065 C76.8620595,56.8999187 78,53.7737869 78,50.1831178 C78,46.0079211 76.7238052,42.7669731 74.1713767,40.4601771 C71.6189483,38.1533807 68.2583012,37 64.0893345,37 L43,37 Z M73,49.8899803 C73,52.9076772 72.0815489,55.0137465 70.2446196,56.2082516 C68.4076902,57.4027564 66.0153184,58 63.0674317,58 L50,58 L50,42 L63.0674317,42 C65.5973344,42 67.5882279,42.3248167 69.0401721,42.9744596 C71.6800705,44.1899208 73,46.4950715 73,49.8899803 Z" id="Combined-Shape" fill="#FF7F52"></path>
        </g>
    </g>
</svg>