<?xml version="1.0" encoding="UTF-8"?>
<svg width="120px" height="120px" viewBox="0 0 120 120" version="1.1" xmlns="http://www.w3.org/2000/svg" xmlns:xlink="http://www.w3.org/1999/xlink">
    <!-- Generator: Sketch 51 (57462) - http://www.bohemiancoding.com/sketch -->
    <title>icons/pdf</title>
    <desc>Created with Sketch.</desc>
    <defs></defs>
    <g id="icons/pdf" stroke="none" stroke-width="1" fill="none" fill-rule="evenodd">
        <g id="icons/ppt" fill-rule="nonzero">
            <rect id="Rectangle-2" fill="#FFFFFF" x="0" y="0" width="120" height="120" rx="8"></rect>
            <g id="pdf" fill="#F36666">
                <path d="M7.5,0 L112.5,0 C116.642136,-8.11880891e-15 120,3.35786438 120,7.5 L120,112.5 C120,116.642136 116.642136,120 112.5,120 L7.5,120 C3.35786438,120 5.07265312e-16,116.642136 0,112.5 L0,7.5 C-5.07265312e-16,3.35786438 3.35786438,7.60897969e-16 7.5,0 Z M81.67446,74.7959464 C84.5113916,74.7959464 90.0110572,74.7959464 89.9861719,69.1084579 C90.1479266,66.938232 88.9907573,63.2588261 81.1518675,63.0966825 C77.6554736,63.0966825 74.1466372,63.5955851 70.6502434,64.2691035 C66.4819447,60.4275544 62.9979937,55.900014 60.3228169,50.8985164 C63.1597485,41.5440945 63.3215036,35.1955603 61.1564768,32.1896727 C60.1610621,30.8551085 58.4937427,30.0194469 56.8264234,30.0194469 C54.6613965,29.844831 52.6581247,30.8551085 51.6627101,32.6885752 C48.6640237,37.7025454 52.9940771,47.5683424 54.9973489,51.5720348 C52.6581247,58.7562308 49.8336356,65.6036677 46.1630445,72.2889611 C30.3359524,79.1363981 30,83.3022337 30,84.8114141 C30,86.6573531 31.0078573,88.49082 32.8369316,89.3264816 C33.5088364,89.8378568 34.504251,90 35.3379108,90 C39.5062095,90 44.3464129,85.3227889 49.5101261,76.1305106 C56.0052064,73.4613821 62.5127291,71.2911563 69.3437617,69.7819762 C72.8401556,72.7878638 77.170209,74.459187 81.67446,74.7959464 Z M35.014401,85.1606456 C36.5075229,82.9779472 38.5107949,81.306624 41.0117737,80.3212916 C39.6804068,82.4915175 37.8513326,84.1628407 35.5121083,84.9985024 L35.014401,85.1606456 Z M57.1748183,35.033417 C58.0084781,37.8771611 58.0084781,40.8830486 57.0006206,43.7143204 C55.8434513,41.0451922 55.3333013,38.0393044 56.0052064,35.1955603 C56.1794036,35.033417 56.515356,35.033417 56.6771111,35.033417 L57.1748183,35.033417 Z M53.1060611,71.0417051 L58.3195451,58.9932097 C60.1486196,61.8244811 65.2625618,67.4870246 65.2625618,67.4870246 C61.5919706,68.3226863 56.7766526,69.7071409 53.1060611,71.0417051 Z M81.0149978,68.1106526 C84.337194,68.1106526 85.0090988,68.9463146 85.0215416,69.4452169 C83.9514709,69.8069213 82.806744,69.931647 81.6869025,69.7819762 C80.0195831,69.619833 78.3522638,69.2830736 76.6849444,68.447412 C78.1780661,68.1106526 79.5094331,68.1106526 81.0149978,68.1106526 Z" id="Shape"></path>
            </g>
        </g>
    </g>
</svg>