<?xml version="1.0" encoding="UTF-8"?>
<svg width="23px" height="23px" viewBox="0 0 23 23" version="1.1" xmlns="http://www.w3.org/2000/svg" xmlns:xlink="http://www.w3.org/1999/xlink">
    <!-- Generator: Sketch 57.1 (83088) - https://sketch.com -->
    <title>消息 (1)</title>
    <desc>Created with Sketch.</desc>
    <g id="页面-1" stroke="none" stroke-width="1" fill="none" fill-rule="evenodd">
        <g id="实时视频-直播中" transform="translate(-296.000000, -772.000000)">
            <g id="编组-9" transform="translate(0.000000, 756.000000)">
                <g id="消息-(1)" transform="translate(296.000000, 16.000000)">
                    <g id="编组-15" transform="translate(0.500000, 0.500000)" fill="#787878" fill-rule="nonzero">
                        <path d="M20.7428571,21.9827789 C20.6825832,21.9827789 20.6266145,21.9741683 20.5663405,21.9612524 L15.9898239,20.7816047 C14.4485323,21.5694716 12.7264188,21.9827789 10.9870841,21.9827789 C4.9295499,21.9827789 0,17.053229 0,10.9913894 C0,4.9295499 4.9295499,0 10.9913894,0 C17.053229,0 21.9827789,4.9295499 21.9827789,10.9913894 C21.9827789,13.2688845 21.2982387,15.4387476 19.9980431,17.2943249 L21.4015656,21.0356164 C21.4919765,21.2810176 21.4403131,21.5565558 21.2681018,21.7502935 C21.1303327,21.9009785 20.9409002,21.9827789 20.7428571,21.9827789 Z M18.3159382,17.0809977 L18.769597,16.4335576 C19.8937887,14.8291648 20.4827789,12.959596 20.4827789,10.9913894 C20.4827789,5.75797703 16.2248018,1.5 10.9913894,1.5 C5.75797703,1.5 1.5,5.75797703 1.5,10.9913894 C1.5,16.2242259 5.75740134,20.4827789 10.9870841,20.4827789 C12.489652,20.4827789 13.9777095,20.1255307 15.3070916,19.4459863 L15.8134972,19.1871253 L16.3642276,19.3290821 L19.4588754,20.1276615 L18.3159382,17.0809977 Z" id="路径"></path>
                        <path d="M5.88372226,12.1064579 C6.27980837,12.334638 6.77061072,12.334638 7.17100211,12.1064579 C7.56708821,11.8782779 7.81248939,11.4520548 7.81248939,10.9913894 C7.81248939,10.5307241 7.56708821,10.1088063 7.17100211,9.87632094 C6.774916,9.6481409 6.28411365,9.6481409 5.88372226,9.87632094 C5.48763616,10.1088063 5.24223498,10.5307241 5.24223498,10.9913894 C5.24223498,11.4520548 5.48763616,11.8739726 5.88372226,12.1064579 Z M9.70410959,10.9913894 C9.70410959,11.4520548 9.94951076,11.8739726 10.3455969,12.1064579 C10.741683,12.334638 11.2324853,12.334638 11.6328767,12.1064579 C12.0289628,11.8782779 12.274364,11.4520548 12.274364,10.9913894 C12.274364,10.5307241 12.0289628,10.1088063 11.6328767,9.87632094 C11.2367906,9.6481409 10.7459883,9.6481409 10.3455969,9.87632094 C9.94951076,10.1088063 9.70410959,10.5307241 9.70410959,10.9913894 M14.8077945,12.1064579 C15.2038806,12.334638 15.694683,12.334638 16.0950744,12.1064579 C16.4911605,11.8782779 16.7365617,11.4520548 16.7365617,10.9913894 C16.7365617,10.5307241 16.4911605,10.1088063 16.0950744,9.87632094 C15.6989883,9.6481409 15.2081859,9.6481409 14.8077945,9.87632094 C14.4117084,10.1088063 14.1663072,10.5307241 14.1663072,10.9913894 C14.1663072,11.4520548 14.4117084,11.8739726 14.8077945,12.1064579 Z" id="形状"></path>
                    </g>
                    <rect id="矩形" x="0" y="0" width="24" height="24"></rect>
                </g>
            </g>
        </g>
    </g>
</svg>