<?xml version="1.0" encoding="UTF-8"?>
<svg width="24px" height="24px" viewBox="0 0 24 24" version="1.1" xmlns="http://www.w3.org/2000/svg" xmlns:xlink="http://www.w3.org/1999/xlink">
    <!-- Generator: Sketch 57.1 (83088) - https://sketch.com -->
    <title>矩形</title>
    <desc>Created with Sketch.</desc>
    <g id="页面-1" stroke="none" stroke-width="1" fill="none" fill-rule="evenodd">
        <g id="实时视频-直播中" transform="translate(-257.000000, -772.000000)">
            <g id="编组-9" transform="translate(0.000000, 756.000000)">
                <g id="编组-5" transform="translate(257.000000, 16.000000)">
                    <g id="编组-11" transform="translate(0.000000, 0.500000)" fill="#787878" fill-rule="nonzero">
                        <path d="M7.643417,9.81141667 L7.442167,11.73 L10.1925837,11.73 C10.1925837,14.02425 10.1120837,15.55375 9.977917,16.3050833 C9.816917,17.08325 9.11925033,17.4991667 7.91175033,17.56625 C7.57633367,17.56625 7.22750033,17.5394167 6.878667,17.5125833 L6.556667,16.3319167 C6.89208367,16.3721667 7.240917,16.399 7.61658367,16.399 C8.31425033,16.399 8.71675033,16.1709167 8.82408367,15.7281667 C8.931417,15.272 8.98508367,14.306 8.98508367,12.8301667 L6.154167,12.8301667 L6.52983367,8.71125 L8.850917,8.71125 L8.850917,6.87316667 L6.28833367,6.87316667 L6.28833367,5.773 L10.098667,5.773 L10.098667,9.81141667 L7.643417,9.81141667 Z M11.064667,7.383 L12.7417503,7.383 C12.4197503,6.72558333 12.070917,6.14866667 11.6952503,5.63883333 L12.8625003,5.26316667 C13.238167,5.79983333 13.5735837,6.37675 13.8687503,6.9805 L12.9698337,7.383 L14.9555003,7.383 C15.331167,6.68533333 15.653167,5.94741667 15.9483337,5.16925 L17.1692503,5.58516667 C16.8740837,6.256 16.5655003,6.84633333 16.216667,7.383 L17.8400837,7.383 L17.8400837,12.9509167 L15.049417,12.9509167 L15.049417,14.0645 L18.3767503,14.0645 L18.3767503,15.2585833 L15.049417,15.2585833 L15.049417,17.7004167 L13.801667,17.7004167 L13.801667,15.2585833 L10.5548337,15.2585833 L10.5548337,14.0645 L13.801667,14.0645 L13.801667,12.9509167 L11.064667,12.9509167 L11.064667,7.383 Z M16.7130837,11.891 L16.7130837,10.72375 L15.049417,10.72375 L15.049417,11.891 L16.7130837,11.891 Z M13.801667,11.891 L13.801667,10.72375 L12.191667,10.72375 L12.191667,11.891 L13.801667,11.891 Z M12.191667,9.66383333 L13.801667,9.66383333 L13.801667,8.45633333 L12.191667,8.45633333 L12.191667,9.66383333 Z M15.049417,8.45633333 L15.049417,9.66383333 L16.7130837,9.66383333 L16.7130837,8.45633333 L15.049417,8.45633333 Z" id="弹"></path>
                        <path d="M0.5,11.4995522 C0.5,17.8507058 5.65028429,23 11.9986301,23 C18.3501636,23 23.5,17.8507058 23.5,11.4995522 C23.5,5.14908349 18.3501636,0 11.9986301,0 C5.65031062,0 0.5,5.14929422 0.5,11.4995522 Z M1.79375,11.4995522 C1.79375,5.86430787 6.36433377,1.29375 11.9986301,1.29375 C17.6356688,1.29375 22.20625,5.86362556 22.20625,11.4995522 C22.20625,17.1361172 17.6357153,21.70625 11.9986301,21.70625 C6.36419406,21.70625 1.79375,17.1355787 1.79375,11.4995522 Z" id="Path"></path>
                    </g>
                    <rect id="矩形" x="0" y="0" width="24" height="24"></rect>
                </g>
            </g>
        </g>
    </g>
</svg>