<?xml version="1.0" encoding="UTF-8"?>
<svg width="38px" height="38px" viewBox="0 0 38 38" version="1.1" xmlns="http://www.w3.org/2000/svg" xmlns:xlink="http://www.w3.org/1999/xlink">
    <!-- Generator: Sketch 60 (88103) - https://sketch.com -->
    <title>矩形备份 6</title>
    <desc>Created with Sketch.</desc>
    <g id="页面-1" stroke="none" stroke-width="1" fill="none" fill-rule="evenodd">
        <g id="讲师端-加号展开1" transform="translate(-169.000000, -629.000000)">
            <g id="编组-9" transform="translate(0.000000, 547.000000)">
                <g id="编组-19备份" transform="translate(159.000000, 72.000000)">
                    <g id="编组-24" transform="translate(10.000000, 10.000000)">
                        <g id="编组-22" transform="translate(5.500000, 6.500000)">
                            <path d="M2.89285714,0 L10.2700121,0 C10.709701,0 11.0937115,0.297432906 11.2036618,0.7231526 L11.9502988,3.61407601 C12.1701995,4.4655154 12.9382204,5.06038121 13.8175982,5.06038121 L24.1071429,5.06038121 C25.7048237,5.06038121 27,6.35555747 27,7.95323835 L27,21.2142857 C27,22.8119666 25.7048237,24.1071429 24.1071429,24.1071429 L2.89285714,24.1071429 C1.29517626,24.1071429 0,22.8119666 0,21.2142857 L0,2.89285714 C0,1.29517626 1.29517626,0 2.89285714,0 Z M9.95675312,1.47961426 L2.45263672,1.47961426 C1.92007642,1.47961426 1.488351,1.91133968 1.488351,2.44389997 L1.488351,21.6010219 C1.488351,22.1335822 1.92007642,22.5653076 2.45263672,22.5653076 L24.5401088,22.5653076 C25.0726691,22.5653076 25.5043945,22.1335822 25.5043945,21.6010219 L25.5043945,7.62854004 C25.5043945,7.09597974 25.0726691,6.66425432 24.5401088,6.66425432 L14.2512207,6.66425432 C12.4924651,6.66425432 10.9564233,5.79922101 10.5166219,4.09634224 L9.95675312,1.47961426 Z" id="矩形" fill="#787878" fill-rule="nonzero"></path>
                            <path d="M26.0357143,19.9584961 L18.3214286,12.0535714 C18.067376,11.7349971 17.6598093,11.7370912 17.4074243,12.0535714 L11.2744141,17.8208008 L7.71089621,15.245905 C7.46092266,14.9287189 7.05566485,14.9287424 6.80569131,15.245905 L0.932617188,20.5" id="路径" stroke="#787878" stroke-width="1.5" stroke-linejoin="round" fill-rule="nonzero"></path>
                            <path d="M8.35714286,11.7173549 C9.48143681,11.7173549 10.3928571,10.8059346 10.3928571,9.68164063 C10.3928571,8.55734667 9.48143681,7.64592634 8.35714286,7.64592634 C7.2328489,7.64592634 6.32142857,8.55734667 6.32142857,9.68164063 C6.32142857,10.8059346 7.2328489,11.7173549 8.35714286,11.7173549 Z" id="Path" stroke="#787878" stroke-width="1.42857143" fill-rule="nonzero"></path>
                            <path d="M24.5357143,1.92857143 C25.3154104,1.92857143 25.956163,2.52345951 26.0288477,3.28411142 L26.0357143,3.42857143 C26.0356786,3.43529113 26.0357143,3.4413614 26.0357143,3.44744001 L26.0357143,6.37524414 L24.5168457,6.37524414 L24.5161429,3.42857143 L10.6071429,3.42857143 L10.6071429,1.92857143 L24.5357143,1.92857143 Z" id="形状结合" fill="#787878"></path>
                        </g>
                    </g>
                </g>
            </g>
        </g>
    </g>
</svg>