<?xml version="1.0" encoding="UTF-8"?>
<svg width="38px" height="38px" viewBox="0 0 38 38" version="1.1" xmlns="http://www.w3.org/2000/svg" xmlns:xlink="http://www.w3.org/1999/xlink">
    <!-- Generator: Sketch 60 (88103) - https://sketch.com -->
    <title>矩形</title>
    <desc>Created with Sketch.</desc>
    <g id="页面-1" stroke="none" stroke-width="1" fill="none" fill-rule="evenodd">
        <g id="讲师端-加号展开1" transform="translate(-26.000000, -629.000000)" fill="#787878" fill-rule="nonzero">
            <g id="编组-9" transform="translate(0.000000, 547.000000)">
                <g id="编组-20" transform="translate(16.000000, 72.000000)">
                    <g id="编组-8" transform="translate(10.000000, 10.000000)">
                        <g id="open-book" transform="translate(4.500000, 7.000000)">
                            <path d="M27.7401987,3.13932342 L25.7281611,3.13922678 L25.7281611,1.05644557 C25.7281611,0.579602617 25.3792752,0.174469731 24.907651,0.103919395 C24.8253101,0.0915489257 22.8651705,-0.193165168 20.5048268,0.23632208 C17.8734926,0.715097919 15.7749584,1.89580127 14.3516779,3.68072476 C12.9283007,1.89580127 10.8297664,0.715097919 8.19852886,0.23632208 C5.83808859,-0.193068524 3.87794899,0.0915489257 3.7957047,0.103919395 C3.32408054,0.174566375 2.97519463,0.579699261 2.97519463,1.05644557 L2.97519463,3.13922678 L0.963157047,3.13922678 C0.43132349,3.13922678 5.5067062e-14,3.57055027 5.5067062e-14,4.10248047 L5.5067062e-14,22.2527623 C5.5067062e-14,22.5646335 0.150958389,22.8571758 0.40522953,23.0379006 C0.659500671,23.2186254 0.985481879,23.2650147 1.27995705,23.1623785 C1.35224698,23.1373476 8.56993289,20.6740778 13.951957,23.1290362 C14.2059383,23.2449127 14.4975141,23.2449127 14.7514953,23.1290362 C20.118443,20.6810362 27.3515919,23.1375409 27.4234953,23.1623785 C27.5267114,23.1983301 27.6336,23.216016 27.740102,23.216016 C27.9375463,23.216016 28.1329611,23.1553234 28.2982228,23.0379972 C28.552494,22.8572724 28.7034523,22.5647301 28.7034523,22.252859 L28.7034523,4.10257711 C28.7034523,3.57064691 28.2721289,3.13932342 27.7401987,3.13932342 Z M1.43,21.46 L1.43,4.57 L2.97519463,4.57 L2.97519463,17.8928483 C2.97519463,18.1727301 3.09764295,18.4385019 3.3093906,18.6214496 C3.52113826,18.8043972 3.80201349,18.8737229 4.07954899,18.8455677 C8.26806641,18.4206543 10.6322021,19.276001 13.5449219,21.46 C8.16992187,19.7891846 3.34297718,20.9577396 1.43,21.46 Z M13.3885208,19.833252 C9.96533203,16.6992187 4.63907368,17.3489503 4.45361328,17.3563919 L4.45361328,1.21768599 C6.30473811,1.13418532 11.2561611,1.33211284 13.3885208,4.94689941 L13.3885208,19.833252 Z M14.81,5.02315861 C16.9347248,1.42383512 22.4481987,1.21691968 24.3,1.29626465 L24.3,17.276001 C21.6779785,16.9901123 17.7789307,17.2433352 14.81,19.7952881 L14.81,5.02315861 Z M14.9625244,21.4294434 C17.4984131,18.622706 23.2950439,18.411377 24.6222604,18.8454711 C24.8938526,18.934301 25.1811544,18.805557 25.3935785,18.622706 C25.6060027,18.4396617 25.7281611,18.17331 25.7281611,17.8928483 L25.7281611,4.57 L27.28,4.57 L27.28,21.5876465 C25.366443,21.0851928 20.5238037,19.8303223 14.9625244,21.4294434 Z" id="形状"></path>
                        </g>
                    </g>
                </g>
            </g>
        </g>
    </g>
</svg>