<?xml version="1.0" encoding="UTF-8"?>
<svg width="12px" height="12px" viewBox="0 0 12 12" version="1.1" xmlns="http://www.w3.org/2000/svg" xmlns:xlink="http://www.w3.org/1999/xlink">
    <!-- Generator: Sketch 60 (88103) - https://sketch.com -->
    <title>元素/勾选项/单选-勾选</title>
    <desc>Created with Sketch.</desc>
    <g id="页面-1" stroke="none" stroke-width="1" fill="none" fill-rule="evenodd">
        <g id="实时视频-回放中备份-7" transform="translate(-255.000000, -778.000000)" fill="#09BB07">
            <g id="编组-17" transform="translate(0.000000, 275.000000)">
                <g id="编组-16" transform="translate(0.000000, 481.000000)">
                    <g id="元素/勾选项/单选-勾选" transform="translate(255.000000, 22.000000)">
                        <g id="元素/勾选项/单选-勾选-copy">
                            <path d="M6,0 C9.23839694,0 11.8775718,2.57201461 11.9958615,5.77550081 L12,6 C12,9.23839694 9.42798539,11.8775718 6.22449919,11.9958615 L6,12 C2.6862915,12 0,9.30696577 0,6 C0,2.76160306 2.57201461,0.122428238 5.77550081,0.00413847206 L6,0 Z M3.48687384,5.55304576 L2.88078232,6.15913729 L5.30514842,8.5835034 L5.91123995,7.97741187 L3.48687384,5.55304576 Z M8.94169758,3.73477118 L5.30514842,7.37132034 L5.91123995,7.97741187 L9.54778911,4.34086271 L8.94169758,3.73477118 Z" id="Combined-Shape-Copy"></path>
                        </g>
                    </g>
                </g>
            </g>
        </g>
    </g>
</svg>