<?xml version="1.0" encoding="UTF-8"?>
<svg width="16px" height="16px" viewBox="0 0 16 16" version="1.1" xmlns="http://www.w3.org/2000/svg" xmlns:xlink="http://www.w3.org/1999/xlink">
    <!-- Generator: Sketch 52.2 (67145) - http://www.bohemiancoding.com/sketch -->
    <title>icon/基础图标/icon_paihangbang</title>
    <desc>Created with Sketch.</desc>
    <g id="icon/基础图标/icon_paihangbang" stroke="none" stroke-width="1" fill="none" fill-rule="evenodd">
        <path d="M7.5,15 L7.5,13 L8.5,13 L8.5,15 L13.5,15 C13.7761424,15 14,15.2238576 14,15.5 C14,15.7761424 13.7761424,16 13.5,16 L2.5,16 C2.22385763,16 2,15.7761424 2,15.5 C2,15.2238576 2.22385763,15 2.5,15 L7.5,15 Z M14,2 L15.75,2 C15.8880712,2 16,2.11192881 16,2.25 L16,5 C16,6.32842132 15.1365718,7.4551782 13.9402999,7.84968622 C13.527601,10.7610013 11.0252736,13 8,13 C4.97472644,13 2.47239905,10.7610013 2.05970007,7.84968622 C0.863428156,7.4551782 1.62684692e-16,6.32842132 0,5 L0,2.25 C-1.69088438e-17,2.11192881 0.111928813,2 0.25,2 L2,2 L2,0.25 C2,0.111928813 2.11192881,2.53632657e-17 2.25,0 L13.75,0 C13.8880712,-2.53632657e-17 14,0.111928813 14,0.25 L14,2 Z M14,3 L14,6.73243561 C14.5978014,6.38662619 15,5.74028236 15,5 L15,3 L14,3 Z M2,6.73243561 L2,3 L1,3 L1,5 C1,5.74028236 1.40219863,6.38662619 2,6.73243561 Z M3,1 L3,7 C3,9.76142375 5.23857625,12 8,12 C10.7614237,12 13,9.76142375 13,7 L13,1 L3,1 Z" id="Combined-Shape" fill="#353535" fill-rule="nonzero"></path>
    </g>
</svg>