<?xml version="1.0" encoding="UTF-8"?>
<svg width="22px" height="22px" viewBox="0 0 22 22" version="1.1" xmlns="http://www.w3.org/2000/svg" xmlns:xlink="http://www.w3.org/1999/xlink">
    <!-- Generator: Sketch 54 (76480) - https://sketchapp.com -->
    <title>icon/素材</title>
    <desc>Created with Sketch.</desc>
    <g id="icon/素材" stroke="none" stroke-width="1" fill="none" fill-rule="evenodd">
        <rect id="矩形" fill="#FFFFFF" opacity="0" x="0" y="0" width="22" height="22"></rect>
        <path d="M19.55,5.3 L15.2275,5.3 C14.99,3.16250001 13.185,1.5 11,1.5 C8.81499999,1.5 7.01,3.16250001 6.7725,5.3 L2.45000001,5.3 C1.9275,5.3 1.5,5.7275 1.5,6.25000001 L1.5,18.6 C1.5,19.645 2.355,20.5 3.39999999,20.5 L18.6,20.5 C19.645,20.5 20.5,19.645 20.5,18.6 L20.5,6.25000001 C20.5,5.7275 20.0725,5.3 19.55,5.3 Z M11,2.5 C12.7753623,2.5 14.2463768,3.80000001 14.5,5.5 L7.5,5.5 C7.7536232,3.80000001 9.22463767,2.5 11,2.5 Z M19.5,18.5714286 C19.5,19.0821429 19.075,19.5 18.5555555,19.5 L3.44444445,19.5 C2.925,19.5 2.5,19.0821428 2.5,18.5714285 L2.5,6.5 L6.74999999,6.5 C6.74999999,7.24285713 6.74999999,7.89285714 6.74999999,8.49642856 C6.46666666,8.63571428 6.27777778,8.96071427 6.27777778,9.28571428 C6.27777778,9.79642858 6.70277777,10.2142857 7.22222222,10.2142857 C7.74166668,10.2142857 8.16666667,9.79642858 8.16666667,9.28571428 C8.16666667,8.96071429 7.97777779,8.63571428 7.69444446,8.49642856 L7.69444444,6.5 L14.3055555,6.5 L14.3055555,8.49642856 C14.0222222,8.63571428 13.8333333,8.96071427 13.8333333,9.28571428 C13.8333333,9.79642858 14.2583333,10.2142857 14.7777778,10.2142857 C15.2972222,10.2142857 15.7222222,9.79642858 15.7222222,9.28571428 C15.7222222,8.96071429 15.5333333,8.63571428 15.25,8.49642856 C15.25,7.84642856 15.25,7.10357142 15.25,6.5 L19.5,6.5 L19.5,18.5714286 Z" id="形状" fill="#6BD06A" fill-rule="nonzero"></path>
    </g>
</svg>