<?xml version="1.0" encoding="UTF-8"?>
<svg width="38px" height="38px" viewBox="0 0 38 38" version="1.1" xmlns="http://www.w3.org/2000/svg" xmlns:xlink="http://www.w3.org/1999/xlink">
    <!-- Generator: Sketch 60 (88103) - https://sketch.com -->
    <title>矩形</title>
    <desc>Created with Sketch.</desc>
    <g id="直播_0415.1" stroke="none" stroke-width="1" fill="none" fill-rule="evenodd">
        <g id="直播_讲师端_点击加号" transform="translate(-26.000000, -595.000000)" fill-rule="nonzero">
            <g id="编组-9" transform="translate(0.000000, 513.000000)">
                <g id="编组-20备份" transform="translate(16.000000, 72.000000)">
                    <g id="编组-8" transform="translate(10.000000, 10.000000)">
                        <g id="编组-5" transform="translate(5.500000, 7.500000)">
                            <path d="M16.9902456,9.53914238 C17.5196271,8.99908653 18.3400803,8.99519882 18.8317977,9.49207173 L18.9255744,9.59811263 L26.6398601,17.5030373 L25.5663341,18.5506736 L17.931,10.721 L11.8555834,16.4355331 C11.6228002,16.6544328 11.2810542,16.6991507 11.0033421,16.5585167 L10.9025395,16.4970688 L7.33902165,13.922173 L7.329,13.912 L1.50005593,19.1273263 L0.499944071,18.0093924 L6.342,12.782 L6.37960142,12.7401134 C6.90906775,12.1884772 7.74231177,12.188465 8.27177006,12.7401288 L8.283,12.754 L11.279,14.918 L16.943,9.592 L16.9902456,9.53914238 Z" id="路径" fill="#787878"></path>
                            <path d="M24,0.25 L3,0.25 C1.48121694,0.25 0.25,1.48121694 0.25,3 L0.25,20 C0.25,21.5187831 1.48121694,22.75 3,22.75 L24,22.75 C25.5187831,22.75 26.75,21.5187831 26.75,20 L26.75,3 C26.75,1.48121694 25.5187831,0.25 24,0.25 Z M3,1.75 L24,1.75 C24.6903559,1.75 25.25,2.30964406 25.25,3 L25.25,20 C25.25,20.6903559 24.6903559,21.25 24,21.25 L3,21.25 C2.30964406,21.25 1.75,20.6903559 1.75,20 L1.75,3 C1.75,2.30964406 2.30964406,1.75 3,1.75 Z" id="矩形" fill="#787878"></path>
                            <path d="M8.42452567,9.78571429 C9.54881962,9.78571429 10.46024,8.87429396 10.46024,7.75 C10.46024,6.62570604 9.54881962,5.71428571 8.42452567,5.71428571 C7.30023171,5.71428571 6.38881138,6.62570604 6.38881138,7.75 C6.38881138,8.87429396 7.30023171,9.78571429 8.42452567,9.78571429 Z" id="Path" stroke="#787878" stroke-width="1.42857143"></path>
                        </g>
                    </g>
                </g>
            </g>
        </g>
    </g>
</svg>