<?xml version="1.0" encoding="UTF-8"?>
<svg width="22px" height="22px" viewBox="0 0 22 22" version="1.1" xmlns="http://www.w3.org/2000/svg" xmlns:xlink="http://www.w3.org/1999/xlink">
    <!-- Generator: Sketch 60 (88103) - https://sketch.com -->
    <title>更多 (1)</title>
    <desc>Created with Sketch.</desc>
    <g id="页面-1" stroke="none" stroke-width="1" fill="none" fill-rule="evenodd">
        <g id="实时视频-回放中" transform="translate(-336.000000, -773.000000)">
            <g id="编组-9" transform="translate(0.000000, 756.000000)">
                <g id="更多-(1)" transform="translate(335.000000, 16.000000)">
                    <path d="M8.85962212,11.1218006 L4.22414714,11.1218006 C3.00196728,11.1218006 2,10.1144173 2,8.88563101 L2,4.23616956 C2.01101063,3.00738332 3.00196728,2 4.22414714,2 L8.85962212,2 C10.081802,2 11.0837693,3.00738332 11.0837693,4.23616956 L11.0837693,8.89670116 C11.0837693,10.1254874 10.081802,11.1218006 8.85962212,11.1218006 Z M4.22414714,3.16236536 C3.64058378,3.16236536 3.15611609,3.63838166 3.15611609,4.23616956 L3.15611609,8.89670116 C3.15611609,9.48341891 3.62957315,9.97050535 4.22414714,9.97050535 L8.85962212,9.97050535 C9.44318548,9.97050535 9.92765317,9.49448906 9.92765317,8.89670116 L9.92765317,4.23616956 C9.92765317,3.6494518 9.45419611,3.16236536 8.85962212,3.16236536 L4.22414714,3.16236536 Z M19.7711559,11.1218006 L15.1356809,11.1218006 C13.913501,11.1218006 12.9115337,10.1144173 12.9115337,8.88563101 L12.9115337,4.23616956 C12.9115337,3.00738332 13.913501,2 15.1356809,2 L19.7711559,2 C20.9933357,2 21.995303,3.00738332 21.995303,4.23616956 L21.995303,8.89670116 C21.995303,10.1254874 20.9933357,11.1218006 19.7711559,11.1218006 Z M15.1356809,3.16236536 C14.5521175,3.16236536 14.0676498,3.63838166 14.0676498,4.23616956 L14.0676498,8.89670116 C14.0676498,9.48341891 14.5411069,9.97050535 15.1356809,9.97050535 L19.7711559,9.97050535 C20.3547192,9.97050535 20.8391869,9.49448906 20.8391869,8.89670116 L20.8391869,4.23616956 C20.8391869,3.6494518 20.3657298,3.16236536 19.7711559,3.16236536 L15.1356809,3.16236536 Z M8.85962212,21.9816141 L4.22414714,21.9816141 C3.00196728,21.9816141 2,20.9742308 2,19.7454446 L2,15.084913 C2,13.8561267 3.00196728,12.8487434 4.22414714,12.8487434 L8.85962212,12.8487434 C10.081802,12.8487434 11.0837693,13.8561267 11.0837693,15.084913 L11.0837693,19.7454446 C11.0837693,20.9853009 10.081802,21.9816141 8.85962212,21.9816141 Z M4.22414714,14.0221789 C3.64058378,14.0221789 3.15611609,14.4981952 3.15611609,15.0959831 L3.15611609,19.7565147 C3.15611609,20.3432325 3.62957315,20.8303189 4.22414714,20.8303189 L8.85962212,20.8303189 C9.44318548,20.8303189 9.92765317,20.3543026 9.92765317,19.7565147 L9.92765317,15.0959831 C9.92765317,14.5092653 9.45419611,14.0221789 8.85962212,14.0221789 L4.22414714,14.0221789 Z M17.4589237,21.9816141 C14.9595108,21.9816141 12.9225444,19.933637 12.9225444,17.4207138 C12.9225444,14.9077906 14.9595108,12.8598135 17.4589237,12.8598135 C19.9583366,12.8598135 21.995303,14.9077906 21.995303,17.4207138 C21.995303,19.933637 19.9583366,21.9816141 17.4589237,21.9816141 Z M17.4589237,14.0221789 C15.5981273,14.0221789 14.0786605,15.5498591 14.0786605,17.4207138 C14.0786605,19.2915686 15.5981273,20.8192487 17.4589237,20.8192487 C19.3197201,20.8192487 20.8391869,19.2915686 20.8391869,17.4207138 C20.8391869,15.5498591 19.3197201,14.0221789 17.4589237,14.0221789 L17.4589237,14.0221789 Z" id="形状" stroke="#787878" stroke-width="0.2" fill="#787878" fill-rule="nonzero"></path>
                    <rect id="矩形" x="0" y="0" width="24" height="24"></rect>
                </g>
            </g>
        </g>
    </g>
</svg>