<?xml version="1.0" encoding="UTF-8"?>
<svg width="38px" height="38px" viewBox="0 0 38 38" version="1.1" xmlns="http://www.w3.org/2000/svg" xmlns:xlink="http://www.w3.org/1999/xlink">
    <!-- Generator: Sketch 60 (88103) - https://sketch.com -->
    <title>矩形备份 6</title>
    <desc>Created with Sketch.</desc>
    <g id="页面-1" stroke="none" stroke-width="1" fill="none" fill-rule="evenodd">
        <g id="讲师端-加号展开1" transform="translate(-311.000000, -629.000000)" fill="#787878" fill-rule="nonzero">
            <g id="编组-9" transform="translate(0.000000, 547.000000)">
                <g id="编组-17" transform="translate(301.000000, 72.000000)">
                    <g id="编组-23" transform="translate(10.000000, 10.000000)">
                        <g id="编组-11">
                            <path d="M12.5293414,7.24990677 C12.9103255,7.24990677 13.2840411,7.35419722 13.609973,7.55147183 L30.3773773,17.7001639 C31.3634218,18.2969803 31.6789535,19.5801425 31.0821371,20.566187 C30.9075843,20.8545785 30.6657688,21.096394 30.3773773,21.2709468 L13.609973,31.4196389 C12.6239286,32.0164553 11.3407663,31.7009235 10.7439499,30.7148791 C10.5466753,30.3889471 10.4423848,30.0152315 10.4423848,29.6342474 L10.4423848,9.3368633 C10.4423848,8.18426903 11.3767471,7.24990677 12.5293414,7.24990677 Z M12.0073242,8.43823242 L12.0073242,30.5728864 L30.2231445,19.4941406 L12.0073242,8.43823242 Z M17.9287534,15.4238175 C18.3609762,15.4238175 18.7113621,15.7742034 18.7113621,16.2064262 L18.7113621,16.2064262 L18.7113621,22.5725098 C18.7113621,23.0047326 18.3609762,23.3551185 17.9287534,23.3551185 C17.4965305,23.3551185 17.1461447,23.0047326 17.1461447,22.5725098 L17.1461447,22.5725098 L17.1461447,16.2064262 C17.1461447,15.7742034 17.4965305,15.4238175 17.9287534,15.4238175 Z M14.7983186,16.7807723 C15.2305415,16.7807723 15.5809273,17.1311582 15.5809273,17.563381 L15.5809273,17.563381 L15.5809273,21.4238175 C15.5809273,21.8560404 15.2305415,22.2064262 14.7983186,22.2064262 C14.3660958,22.2064262 14.0157099,21.8560404 14.0157099,21.4238175 L14.0157099,21.4238175 L14.0157099,17.563381 C14.0157099,17.1311582 14.3660958,16.7807723 14.7983186,16.7807723 Z M21.0591882,16.4672958 C21.491411,16.4672958 21.8417969,16.8176816 21.8417969,17.2499045 L21.8417969,17.2499045 L21.8417969,21.4238175 C21.8417969,21.8560404 21.491411,22.2064262 21.0591882,22.2064262 C20.6269653,22.2064262 20.2765795,21.8560404 20.2765795,21.4238175 L20.2765795,21.4238175 L20.2765795,17.2499045 C20.2765795,16.8176816 20.6269653,16.4672958 21.0591882,16.4672958 Z" id="形状结合"></path>
                        </g>
                    </g>
                </g>
            </g>
        </g>
    </g>
</svg>