<?xml version="1.0" encoding="UTF-8"?>
<svg width="26px" height="26px" viewBox="0 0 26 26" version="1.1" xmlns="http://www.w3.org/2000/svg" xmlns:xlink="http://www.w3.org/1999/xlink">
    <!-- Generator: Sketch 57.1 (83088) - https://sketch.com -->
    <title>编组 11备份</title>
    <desc>Created with Sketch.</desc>
    <defs>
        <linearGradient x1="50%" y1="0%" x2="50%" y2="100%" id="linearGradient-1">
            <stop stop-color="#FFC022" offset="0%"></stop>
            <stop stop-color="#FE8744" offset="100%"></stop>
        </linearGradient>
    </defs>
    <g id="页面-1" stroke="none" stroke-width="1" fill="none" fill-rule="evenodd">
        <g id="直播页-全部收起备份-8" transform="translate(-16.000000, -771.000000)">
            <g id="编组-9" transform="translate(0.000000, 756.000000)">
                <g id="编组-11备份" transform="translate(16.000000, 15.000000)">
                    <rect id="Rectangle" opacity="0" x="1" y="0" width="24" height="24"></rect>
                    <path d="M0,12.9994938 C0,20.1790587 5.8220605,26 12.9984514,26 C20.1784458,26 26,20.1790587 26,12.9994938 C26,5.82070307 20.1784458,0 12.9984514,0 C5.82209027,0 0,5.82094129 0,12.9994938 Z M2,12.9994938 C2,6.92607132 6.92609924,2 12.9984514,2 C19.0739216,2 24,6.92531791 24,12.9994938 C24,19.0743993 19.0739661,24 12.9984514,24 C6.92594798,24 2,19.0738071 2,12.9994938 Z" id="Path" fill="url(#linearGradient-1)" fill-rule="nonzero"></path>
                    <path d="M9.332,9.95 L16.668,9.95 L16.668,12.708 L9.332,12.708 L9.332,9.95 Z M15.366,11.77 L15.366,10.902 L10.634,10.902 L10.634,11.77 L15.366,11.77 Z M12.3,6.506 L13.7,6.506 L13.7,8.088 L15.086,8.088 C15.38,7.612 15.632,7.122 15.856,6.59 L17.144,7.038 C16.962,7.43 16.766,7.78 16.542,8.088 L18.95,8.088 L18.95,11.028 L17.634,11.028 L17.634,9.236 L8.366,9.236 L8.366,11.042 L7.036,11.042 L7.036,8.088 L9.528,8.088 C9.318,7.724 9.08,7.388 8.828,7.08 L10.088,6.618 C10.396,7.024 10.676,7.514 10.928,8.088 L12.3,8.088 L12.3,6.506 Z M17.494,13.31 L17.494,17.188 L16.178,17.188 L16.178,14.486 L9.836,14.486 L9.836,17.342 L8.52,17.342 L8.52,13.31 L17.494,13.31 Z M13.91,17.006 C15.758,17.384 17.424,17.846 18.936,18.406 L18.18,19.568 C16.57,18.896 14.918,18.378 13.238,18.014 L13.91,17.006 Z M12.412,14.92 L13.742,15.032 C13.546,16.628 13.14,17.678 12.496,18.196 C11.796,18.868 10.158,19.288 7.568,19.484 L7.036,18.28 C9.22,18.196 10.648,17.902 11.334,17.398 C11.95,16.922 12.3,16.096 12.412,14.92 Z" id="赏" fill="#FF8744" fill-rule="nonzero"></path>
                </g>
            </g>
        </g>
    </g>
</svg>