<?xml version="1.0" encoding="UTF-8"?>
<svg width="12px" height="12px" viewBox="0 0 12 12" version="1.1" xmlns="http://www.w3.org/2000/svg" xmlns:xlink="http://www.w3.org/1999/xlink">
    <!-- Generator: Sketch 60 (88103) - https://sketch.com -->
    <title>icon_close</title>
    <desc>Created with Sketch.</desc>
    <g id="页面-1" stroke="none" stroke-width="1" fill="none" fill-rule="evenodd">
        <g id="音频库" transform="translate(-344.000000, -231.000000)" fill="#BFBFBF">
            <g id="图文回答" transform="translate(0.000000, 212.000000)">
                <path d="M355.735101,19.2648989 C356.087035,19.6168332 356.0888,20.185667 355.739308,20.5351586 L351.275,25 L355.739308,29.4648414 C356.059785,29.7853179 356.08697,30.2878409 355.816307,30.6423381 L355.735101,30.7351011 C355.383167,31.0870354 354.814333,31.0887999 354.464841,30.7393083 L350,26.275 L345.535159,30.7393083 C345.214682,31.0597848 344.712159,31.0869702 344.357662,30.8163066 L344.264899,30.7351011 C343.912965,30.3831668 343.9112,29.814333 344.260692,29.4648414 L348.725,25 L344.260692,20.5351586 C343.911081,20.1855478 343.910511,19.6192868 344.264899,19.2648989 C344.616833,18.9129646 345.185667,18.9112001 345.535159,19.2606917 L350,23.725 L354.464841,19.2606917 C354.814452,18.9110809 355.380713,18.9105109 355.735101,19.2648989 Z" id="icon_close"></path>
            </g>
        </g>
    </g>
</svg>