<?xml version="1.0" encoding="UTF-8"?>
<svg width="24px" height="36px" viewBox="0 0 24 36" version="1.1" xmlns="http://www.w3.org/2000/svg" xmlns:xlink="http://www.w3.org/1999/xlink">
    <!-- Generator: Sketch 57.1 (83088) - https://sketch.com -->
    <title>icon_voice_pre</title>
    <desc>Created with Sketch.</desc>
    <g id="页面-1" stroke="none" stroke-width="1" fill="none" fill-rule="evenodd">
        <g id="实时视频-直播中备份-11" transform="translate(-176.000000, -672.000000)" fill="#FFFFFF">
            <g id="编组-9" transform="translate(0.000000, 577.000000)">
                <g id="icon_lvying" transform="translate(148.000000, 73.000000)">
                    <path d="M40,44.4 C43.6152835,44.4 46.5454652,41.4454049 46.5454652,37.8 L46.5454652,29 C46.5454652,25.3556975 43.6152444,22.4 40,22.4 C36.3847165,22.4 33.4545348,25.3556975 33.4545348,29 L33.4545348,37.8 C33.4545348,41.4454049 36.3857708,44.4 40,44.4 L40,44.4 Z M52,38.3620975 L52,38.3532779 L52,38.348868 C52,37.4370148 51.2669079,36.6988779 50.3636435,36.6988779 C49.46034,36.6988779 48.7272869,37.4370148 48.7272869,38.348868 L48.7272869,38.348868 C48.7250612,43.2086729 44.81961,47.1466631 40,47.148868 C35.1803119,47.1466631 31.2748998,43.2086729 31.2727131,38.348868 L31.2727131,38.348868 C31.2727131,37.4370148 30.5406753,36.6988779 29.6363565,36.6988779 C28.7319597,36.6988779 28,37.4370148 28,38.348868 L28,38.3532779 L28,38.3620975 C28,44.4802828 32.5130812,49.5238049 38.3636435,50.3256877 L38.3636435,54.2999803 L32.9090696,54.2999803 C32.0046728,54.2999803 31.2727131,55.0391409 31.2727131,55.9499705 C31.2727131,56.8608 32.0046728,57.6 32.9090696,57.6 L47.0909304,57.6 C47.9941948,57.6 48.7272869,56.8608394 48.7272869,55.9500098 C48.7272869,55.0391803 47.9941948,54.3000197 47.0909304,54.3000197 L41.6363565,54.3000197 L41.6363565,50.3256877 C47.4879731,49.5238049 52,44.4802828 52,38.3620975 L52,38.3620975 Z" id="icon_voice_pre"></path>
                </g>
            </g>
        </g>
    </g>
</svg>