<?xml version="1.0" encoding="UTF-8"?>
<svg width="38px" height="38px" viewBox="0 0 38 38" version="1.1" xmlns="http://www.w3.org/2000/svg" xmlns:xlink="http://www.w3.org/1999/xlink">
    <!-- Generator: Sketch 60 (88103) - https://sketch.com -->
    <title>矩形</title>
    <desc>Created with Sketch.</desc>
    <g id="页面-1" stroke="none" stroke-width="1" fill="none" fill-rule="evenodd">
        <g id="讲师端-加号展开1" transform="translate(-97.000000, -629.000000)" fill="#787878" fill-rule="nonzero">
            <g id="编组-9" transform="translate(0.000000, 547.000000)">
                <g id="编组-19" transform="translate(87.000000, 72.000000)">
                    <g id="编组-12" transform="translate(10.000000, 10.000000)">
                        <path d="M33.2846289,9 C33.8079974,9 34.2389124,9.39600522 34.2940417,9.90473535 L34.3,10.0153711 L34.3,15.5731299 C34.3,16.1338819 33.8454022,16.588501 33.2846289,16.588501 C31.9359091,16.588501 30.838457,17.6859531 30.838457,19.0346729 C30.838457,20.3833719 31.935947,21.4808447 33.2846289,21.4808447 C33.8079974,21.4808447 34.2389124,21.8768499 34.2940417,22.3855801 L34.3,22.4962158 L34.3,28.204458 C34.3,28.7278265 33.9039948,29.1587415 33.3952647,29.2138708 L33.2846289,29.2198291 L5.01537109,29.2198291 C4.49200256,29.2198291 4.06108758,28.8238239 4.00595833,28.3150938 L4,28.204458 L4,22.4962158 C4,21.9354426 4.45461909,21.4808447 5.01537109,21.4808447 C6.36409088,21.4808447 7.46154297,20.3833926 7.46154297,19.0346729 C7.46154297,17.6859738 6.36405304,16.588501 5.01537109,16.588501 C4.49200256,16.588501 4.06108758,16.1924958 4.00595833,15.6837656 L4,15.5731299 L4,10.0153711 C4,9.49198271 4.39602374,9.06108493 4.90473905,9.00595807 L5.01537109,9 L33.2846289,9 Z M12.565835,10.53 L5.53,10.53 L5.53,14.6739196 C7.5365095,15.1405739 8.99,16.9413676 8.99,19.0346729 C8.99,21.1279594 7.53652863,22.9287107 5.53,23.3954228 L5.53,27.69 L12.5658936,27.69 L12.5658936,23.6500439 C12.5658936,23.0893106 12.7558926,22.6346729 13.316626,22.6346729 C13.877378,22.6346729 14.0673584,23.0892707 14.0673584,23.6500439 L14.0673584,27.69 L32.77,27.69 L32.77,23.3954261 C30.7634751,22.9287691 29.31,21.1279652 29.31,19.0346729 C29.31,16.9413747 30.7634243,15.1406308 32.77,14.6739221 L32.77,10.53 L14.0672998,10.53 L14.0672998,14.4193018 C14.0672998,14.9800351 13.8773007,15.4346729 13.3165674,15.4346729 C12.7558154,15.4346729 12.565835,14.980075 12.565835,14.4193018 L12.565835,10.53 Z M13.3391479,16.865415 C13.8999429,16.865415 14.0668168,17.3200599 14.0667481,17.8807861 L14.0667481,17.8807861 L14.0667481,20.188501 C14.0667481,20.7492343 13.8998813,21.2038721 13.3391479,21.2038721 C12.7783959,21.2038721 12.6115479,20.7492742 12.6115479,20.188501 L12.6115479,20.188501 L12.6115479,17.8807861 C12.6115479,17.3200341 12.7783747,16.865415 13.3391479,16.865415 Z" id="形状结合"></path>
                    </g>
                </g>
            </g>
        </g>
    </g>
</svg>