<?xml version="1.0" encoding="UTF-8"?>
<svg width="54px" height="54px" viewBox="0 0 54 54" version="1.1" xmlns="http://www.w3.org/2000/svg" xmlns:xlink="http://www.w3.org/1999/xlink">
    <!-- Generator: Sketch 60 (88103) - https://sketch.com -->
    <title>矩形</title>
    <desc>Created with Sketch.</desc>
    <defs>
        <path d="M2.1025641,0.306657285 L31.8461538,0.306657285 C32.9790456,0.306657285 33.8974359,1.22504754 33.8974359,2.35793934 L33.8974359,25.3085186 C33.8974359,26.4414104 32.9790456,27.3598007 31.8461538,27.3598007 L2.1025641,27.3598007 C0.969672308,27.3598007 0.0512820513,26.4414104 0.0512820513,25.3085186 L0.0512820513,2.35793934 C0.0512820513,1.22504754 0.969672308,0.306657285 2.1025641,0.306657285 Z" id="path-1"></path>
        <filter x="-38.4%" y="-40.7%" width="176.8%" height="196.1%" filterUnits="objectBoundingBox" id="filter-3">
            <feOffset dx="0" dy="2" in="SourceAlpha" result="shadowOffsetOuter1"></feOffset>
            <feGaussianBlur stdDeviation="4" in="shadowOffsetOuter1" result="shadowBlurOuter1"></feGaussianBlur>
            <feColorMatrix values="0 0 0 0 0.988235294   0 0 0 0 0.325490196   0 0 0 0 0.337254902  0 0 0 0.504261364 0" type="matrix" in="shadowBlurOuter1"></feColorMatrix>
        </filter>
    </defs>
    <g id="页面-1" stroke="none" stroke-width="1" fill="none" fill-rule="evenodd">
        <g id="实时视频-直播中" transform="translate(-315.000000, -407.000000)">
            <g id="编组-21" transform="translate(315.000000, 407.000000)">
                <g id="编组-21备份" transform="translate(8.000000, 2.000000)">
                    <path d="M7.17948734,17.120845 C10.0117168,17.120845 13.8479068,14.3656743 13.8479068,10.9669989 C13.8479068,7.5683235 8.98032593,3.393128 4.63524881,5.02135816 C0.290171686,6.64958833 0.589943754,11.4652592 1.61558494,13.8435831 C2.64122612,16.221907 4.34725785,17.120845 7.17948734,17.120845 Z" id="椭圆形" fill="#FEC52B"></path>
                    <path d="M10.0935094,7.16609944 C9.0919757,7.25808703 8.654654,7.9622567 8.47770452,8.51955569" id="形状" stroke-opacity="0.601999563" stroke="#FFFFFF" stroke-width="1.02564103" stroke-linecap="round" stroke-linejoin="round" transform="translate(9.285607, 7.842828) rotate(85.000000) translate(-9.285607, -7.842828) "></path>
                    <path d="M28.3484826,5.48821451 C27.0357155,5.92808497 26.1332298,6.78892064 25.6410256,8.07072152" id="路径-2" stroke-opacity="0.601999563" stroke="#FFFFFF" stroke-width="1.02564103" stroke-linecap="round" stroke-linejoin="round" transform="translate(26.994754, 6.779468) rotate(1.000000) translate(-26.994754, -6.779468) "></path>
                    <path d="M18.9408412,15.7140759 C25.799601,15.4982305 24.6153846,12.6526057 24.6153846,10.1035991 C24.6153846,7.55459259 21.5846968,5.48821451 17.8461538,5.48821451 C14.1076109,5.48821451 12.3076923,7.55459259 12.3076923,10.1035991 C12.3076923,12.6526057 12.0820813,15.9299212 18.9408412,15.7140759 Z" id="椭圆形备份" fill="#FF964A"></path>
                    <path d="M15.2922238,8.34953284 C15.4299218,7.97901914 15.6511646,7.71840095 15.9346142,7.49381652" id="路径-4" stroke-opacity="0.601999563" stroke="#FFFFFF" stroke-width="1.02564103" stroke-linecap="round" stroke-linejoin="round" transform="translate(15.613419, 7.921675) rotate(17.000000) translate(-15.613419, -7.921675) "></path>
                    <path d="M28.0575612,17.664022 C31.1730137,17.664022 36.6699196,13.9502309 36.6699196,10.3979657 C36.6699196,6.84570052 32.8220969,1.96086855 28.0575612,3.30504759 C23.2930256,4.64922663 22.4165356,6.51941349 22.4165356,10.4845348 C22.4165356,14.4496561 24.9421088,17.664022 28.0575612,17.664022 Z" id="椭圆形备份-2" fill="#FEC52B" transform="translate(29.543228, 10.370473) rotate(25.000000) translate(-29.543228, -10.370473) "></path>
                    <path d="M28.3484826,5.48821451 C27.0357155,5.92808497 26.1332298,6.78892064 25.6410256,8.07072152" id="路径-2" stroke-opacity="0.601999563" stroke="#FFFFFF" stroke-width="1.02564103" stroke-linecap="round" stroke-linejoin="round" transform="translate(26.994754, 6.779468) rotate(1.000000) translate(-26.994754, -6.779468) "></path>
                    <path d="M29.6355419,5.07655586 C29.7007921,5.0397574 29.7660423,5.00295893 29.8312926,4.96616047" id="路径-4" stroke-opacity="0.601999563" stroke="#FFFFFF" stroke-width="1.02564103" stroke-linecap="round" stroke-linejoin="round" transform="translate(29.733417, 5.021358) rotate(17.000000) translate(-29.733417, -5.021358) "></path>
                </g>
                <g id="Shape" transform="translate(10.000000, 14.693343)">
                    <mask id="mask-2" fill="white">
                        <use xlink:href="#path-1"></use>
                    </mask>
                    <g id="蒙版">
                        <use fill="black" fill-opacity="1" filter="url(#filter-3)" xlink:href="#path-1"></use>
                        <use fill="#F73E41" fill-rule="evenodd" xlink:href="#path-1"></use>
                    </g>
                </g>
                <g id="shopping-bag备份" transform="translate(18.000000, 21.000000)" fill-rule="nonzero">
                    <g id="编组-20" transform="translate(0.598291, 0.191445)">
                        <path d="M1.19626572,0 C0.543792287,0 0,0.543880457 0,1.1965812 C0,1.84928194 0.521978744,2.39316239 1.19626572,2.39316239 C1.84873915,2.39316239 2.39253143,1.84928194 2.39253143,1.1965812 C2.41428975,0.543935696 1.87049747,0 1.19626572,0 Z M15.6393295,0 C14.9868553,0 14.4430623,0.543880457 14.4430623,1.1965812 C14.4430623,1.84928194 14.9650417,2.39316239 15.6393295,2.39316239 C16.2918038,2.39316239 16.8355968,1.84928194 16.8355968,1.1965812 C16.8572999,0.543935696 16.3135622,0 15.6393295,0 Z" id="形状" fill="#F70B57"></path>
                        <path d="M8.46110032,8.48388672 C4.60125785,8.48388672 -0.252403846,4.92954835 0.683267681,1.4340103 C0.767995363,1.11747952 0.920906155,0.860628666 1.22338504,0.860628666 C1.52586393,0.860628666 1.7635024,1.11545296 1.7635024,1.4340103 C1.7635024,3.62134205 4.76662296,7.31587911 8.46104546,7.31587911 C12.155468,7.31587911 15.1585885,3.62134205 15.1585885,1.4340103 C15.1585885,1.11545296 15.396227,0.860628666 15.6987059,0.860628666 C16.0011848,0.860628666 16.138409,1.11824889 16.2388232,1.4340103 C17.3504274,4.92954835 12.3209428,8.48388672 8.46110032,8.48388672 Z" id="路径" fill="#F70B57"></path>
                        <path d="M8.46110032,7.8651484 C4.16172004,7.8651484 0.683267681,4.07619832 0.683267681,1.40274781 C0.683267681,1.10155918 0.920906155,0.860628666 1.22338504,0.860628666 C1.52586393,0.860628666 1.7635024,1.10155918 1.7635024,1.40274781 C1.7635024,3.47081966 4.76662296,6.76082408 8.46104546,6.76082408 C12.155468,6.76082408 15.1585885,3.47081966 15.1585885,1.40274781 C15.1585885,1.10155918 15.396227,0.860628666 15.6987059,0.860628666 C16.0011848,0.860628666 16.2388232,1.10155918 16.2388232,1.40274781 C16.2388232,4.22331421 12.738922,7.8651484 8.46110032,7.8651484 Z" id="路径备份" fill="#FFFFFF"></path>
                    </g>
                </g>
            </g>
        </g>
    </g>
</svg>