<?xml version="1.0" encoding="UTF-8"?>
<svg width="32px" height="32px" viewBox="0 0 32 32" version="1.1" xmlns="http://www.w3.org/2000/svg" xmlns:xlink="http://www.w3.org/1999/xlink">
    <!-- Generator: Sketch 52.2 (67145) - http://www.bohemiancoding.com/sketch -->
    <title>icon_avator_live</title>
    <desc>Created with Sketch.</desc>
    <g id="Page-1" stroke="none" stroke-width="1" fill="none" fill-rule="evenodd">
        <g id="直播_直播提醒-邀请为空" transform="translate(-172.000000, -337.000000)">
            <g id="邀请排行榜" transform="translate(16.000000, 269.000000)">
                <g id="icon_avator_live" transform="translate(156.000000, 68.000000)">
                    <rect id="Rectangle-3" fill="#AAE5AA" x="0" y="0" width="32" height="32" rx="15"></rect>
                    <g id="Group-9" transform="translate(7.000000, 8.000000)" fill-rule="nonzero">
                        <path d="M0.571428571,4.57142857 L4.57142857,4.57142857 C4.88701986,4.57142857 5.14285714,4.82726586 5.14285714,5.14285714 L5.14285714,15.4285714 C5.14285714,15.7441627 4.88701986,16 4.57142857,16 L0.571428571,16 C0.255837286,16 2.60693391e-16,15.7441627 2.22044605e-16,15.4285714 L-1.11022302e-16,5.14285714 C-1.49671088e-16,4.82726586 0.255837286,4.57142857 0.571428571,4.57142857 Z" id="Rectangle" fill="#6BD06A"></path>
                        <path d="M5.14285714,5.32525847 C5.63473556,5.38877898 5.98270358,5.32215518 6.18676118,5.12538709 C6.49284758,4.83023494 7.71813687,4.67824806 8.16484118,1.83476858 C8.36778757,0.717486549 8.84085774,0.112490112 9.58405168,0.0197792686 C10.7763744,-0.111722722 11.3725357,0.41249115 11.3725357,1.59242088 C11.3725357,2.51794705 10.7516719,3.64710692 10.406103,4.69114278 C10.0908364,5.64362899 10.347711,7 10.6356414,7 C11.2391771,7 17.9777781,6.87595197 18.6173433,7.11873023 C19.2569085,7.36150848 19.4263632,9.06496638 17.4295282,9.06496638 C16.0983049,9.06496638 14.200337,9.06496638 11.7356245,9.06496638 C11.4612665,9.31222019 11.597086,9.43584709 12.1430831,9.43584709 C12.9620787,9.43584709 17.6617355,9.31269591 18.1005993,9.58201102 C18.5394632,9.85132614 18.3344064,11.620008 17.0146762,11.620008 C15.6949459,11.620008 11.9377601,11.620008 11.7152839,11.620008 C11.4928077,11.620008 11.4928077,11.9449992 11.6888915,11.9449992 C11.8849753,11.9449992 15.7836196,11.9008188 16.1801518,12.1572778 C16.576684,12.4137368 16.2875179,13.7275576 15.4798008,13.730628 C14.6720836,13.7336985 12.1030227,13.7275576 11.8290771,13.7995506 C11.5551316,13.8715437 11.6888915,14.1416131 11.8290771,14.1416131 C11.9358026,14.1416131 14.3703777,14.0739982 15.2804244,14.2025369 C15.5748789,14.2441268 15.363979,15.5115119 14.4496875,15.5115119 C13.8441955,15.5115119 13.6701704,15.5115119 11.8807595,15.5115119 C10.6878189,15.5115119 8.44185147,15.5308068 5.14285714,15.5693967 L5.14285714,5.32525847 Z" id="Path-3" fill="#FFF5C5"></path>
                    </g>
                </g>
            </g>
        </g>
    </g>
</svg>