<?xml version="1.0" encoding="UTF-8"?>
<svg width="18px" height="18px" viewBox="0 0 18 18" version="1.1" xmlns="http://www.w3.org/2000/svg" xmlns:xlink="http://www.w3.org/1999/xlink">
    <title>加载</title>
    <defs>
        <polygon id="path-1" points="0 0 18 0 18 18.0018628 0 18.0018628"></polygon>
    </defs>
    <g id="答题弹窗-竖屏" stroke="none" stroke-width="1" fill="none" fill-rule="evenodd">
        <g id="单选题-已回答-答案加载中备份" transform="translate(-145.000000, -392.000000)">
            <g id="弹窗" transform="translate(28.000000, 152.000000)">
                <g id="编组-9">
                    <g id="加载中" transform="translate(117.000000, 240.000000)">
                        <g id="加载">
                            <g id="jiazai">
                                <mask id="mask-2" fill="white">
                                    <use xlink:href="#path-1"></use>
                                </mask>
                                <g id="Clip-2"></g>
                                <path d="M8.99993574,15.6970804 C8.67208884,15.696763 8.34453949,15.6750613 8.01946978,15.6322926 L8.1927464,15.6555416 C7.54943091,15.5689926 6.92029892,15.397898 6.32177549,15.1466816 L6.47745664,15.212382 C5.89335475,14.9651131 5.3433329,14.6440108 4.84090014,14.256871 L4.97279667,14.3587739 C4.47460904,13.9729632 4.02726375,13.5255385 3.64137365,13.0273707 L3.74335591,13.1592474 C3.35613673,12.6568147 3.03503442,12.1068126 2.78784496,11.5226909 L2.8535651,11.6782927 C2.60232888,11.0797693 2.43131368,10.4506373 2.34468529,9.80734165 L2.36793431,9.98059843 C2.28215892,9.32976471 2.28215892,8.67042089 2.36793431,8.019607 L2.34468529,8.19286378 C2.43131368,7.5495483 2.60240823,6.9204163 2.8535651,6.32189287 L2.78784496,6.47757403 C3.03503442,5.89347213 3.35613673,5.34345029 3.74335591,4.84101752 L3.64137365,4.97291406 C4.02726375,4.47464707 4.47460904,4.02732162 4.97279667,3.64149103 L4.84090014,3.74339395 C5.3433329,3.3561946 5.89335475,3.03507246 6.47745664,2.78788299 L6.32177549,2.85352379 C6.92037827,2.60238675 7.54943091,2.43129221 8.1927464,2.34472333 L8.01946978,2.36797235 C8.67030351,2.28219695 9.32956798,2.28219695 9.9804017,2.36797235 L9.80714492,2.34472333 C10.4504406,2.43129221 11.0794932,2.60238675 11.678096,2.85352379 L11.5224148,2.78788299 C12.1065366,3.03507246 12.6565386,3.3561946 13.1589118,3.74339395 L13.0270153,3.64149103 C13.5252624,4.02732162 13.9726077,4.47464707 14.3584185,4.97291406 L14.2565354,4.84101752 C14.6436554,5.34345029 14.9647776,5.89347213 15.2120464,6.47757403 L15.1463262,6.32189287 C15.3974633,6.9204163 15.5685578,7.5495483 15.6551862,8.19286378 L15.6318777,8.019607 C15.6747257,8.34465688 15.6963481,8.67220622 15.696725,9.00005312 C15.6972606,9.35533466 15.9928128,9.65173984 16.3484117,9.65173984 C16.7032171,9.65173984 17.0005547,9.35533466 17,9.00005312 C16.998075,7.57000029 16.6116295,6.14794179 15.8815468,4.91764804 C15.1754668,3.72798056 14.1504469,2.72426558 12.9482027,2.040423 C11.703289,1.3324189 10.2654006,0.972019404 8.83411785,1.00169563 C7.41003597,1.03121316 5.99517832,1.44610503 4.78533656,2.19898053 C3.61068573,2.93007496 2.62403061,3.97021076 1.96530174,5.18763027 C1.28225265,6.45006004 0.945637769,7.89631974 1.00715246,9.3307764 C1.06807203,10.7508314 1.50526075,12.1532909 2.28231761,13.3452198 C3.03820835,14.5047548 4.09252764,15.4737549 5.32504315,16.1073106 C6.46001988,16.6905595 7.72348118,16.9986487 8.99985639,17.0004345 C9.35515777,17.0008903 9.65154311,16.7036519 9.65154311,16.3487473 C9.65154311,15.9931682 9.35515777,15.697616 8.99993574,15.6970804 Z" id="Fill-1" fill-opacity="0.8" fill="#105CFB" mask="url(#mask-2)"></path>
                            </g>
                        </g>
                    </g>
                </g>
            </g>
        </g>
    </g>
</svg>