<?xml version="1.0" standalone="no"?><!DOCTYPE svg PUBLIC "-//W3C//DTD SVG 1.1//EN" "http://www.w3.org/Graphics/SVG/1.1/DTD/svg11.dtd"><svg t="1589872205720" class="icon" viewBox="0 0 1024 1024" version="1.1" xmlns="http://www.w3.org/2000/svg" p-id="6458" width="76" height="76" xmlns:xlink="http://www.w3.org/1999/xlink"><defs><style type="text/css"></style></defs><path d="M690.714947 818.580211c-7.895579 0-16.222316-2.640842-24.791579-7.895579l-135.275789-82.593685c-4.796632-2.937263-11.937684-4.608-19.590737-4.608-7.626105 0-14.794105 1.670737-19.590737 4.608l-135.248842 82.593685c-8.569263 5.227789-16.896 7.895579-24.791579 7.895579-9.754947 0-18.701474-4.203789-24.522105-11.587369-4.931368-6.278737-9.916632-17.650526-5.497263-36.109474l36.75621-154.165894c2.748632-11.479579-3.152842-29.588211-12.126315-37.268211l-120.346948-103.127579c-20.129684-17.246316-17.408-34.142316-15.306105-40.582737 2.101895-6.467368 9.835789-21.746526 36.24421-23.875368l157.992421-12.665263c11.776-0.943158 27.162947-12.126316 31.690106-23.013053l60.901052-146.32421c10.159158-24.495158 27.055158-27.136 33.845895-27.136 6.817684 0 23.713684 2.640842 33.89979 27.109052l60.847157 146.324211c4.527158 10.913684 19.941053 22.096842 31.717053 23.066947l157.965474 12.665263c26.435368 2.101895 34.169263 17.381053 36.271158 23.848421 2.101895 6.467368 4.823579 23.363368-15.306106 40.582737l-120.373894 103.127579c-8.973474 7.68-14.848 25.788632-12.126316 37.268211l36.783158 154.138947c4.419368 18.485895-0.538947 29.857684-5.524211 36.109474-5.793684 7.410526-14.740211 11.614316-24.522105 11.614316z m-234.415158-425.768422c-10.805895 26.004211-40.151579 47.319579-68.203789 49.583158l-142.174316 11.37179 108.328421 92.779789c21.369263 18.324211 32.579368 52.816842 26.031158 80.222316l-33.091368 138.725053 121.721263-74.374737c11.587368-7.033263 26.543158-10.940632 42.172631-10.940632s30.585263 3.907368 42.145685 10.967579l121.721263 74.34779-33.091369-138.725053c-6.548211-27.405474 4.661895-61.898105 26.058106-80.195368l108.328421-92.806737-142.174316-11.398737c-28.079158-2.236632-57.397895-23.552-68.230737-49.583158L511.056842 261.12l-54.757053 131.691789z" p-id="6459" fill="#787878"></path></svg>