<?xml version="1.0" encoding="UTF-8"?>
<svg width="38px" height="38px" viewBox="0 0 38 38" version="1.1" xmlns="http://www.w3.org/2000/svg" xmlns:xlink="http://www.w3.org/1999/xlink">
    <!-- Generator: Sketch 60 (88103) - https://sketch.com -->
    <title>矩形备份 6</title>
    <desc>Created with Sketch.</desc>
    <g id="页面-1" stroke="none" stroke-width="1" fill="none" fill-rule="evenodd">
        <g id="实时视频-回放中备份-8" transform="translate(-240.000000, -699.000000)" fill="#787878" fill-rule="nonzero">
            <g id="图文回答" transform="translate(0.000000, 461.000000)">
                <g id="编组-16" transform="translate(230.000000, 228.000000)">
                    <g id="编组-28" transform="translate(10.000000, 10.000000)">
                        <g id="diamond-store" transform="translate(7.000000, 8.000000)">
                            <path d="M23.9336625,6.33468797 C23.9409435,6.31824049 23.9449885,6.30018837 23.9510559,6.28293857 C23.9619773,6.25164824 23.9733032,6.22116022 23.9805842,6.18906757 C23.9846291,6.17181777 23.9854381,6.15296334 23.9882696,6.13491122 C23.9935281,6.10201626 23.997573,6.06912129 23.998382,6.03542401 C23.998382,6.02900548 24,6.02379042 24,6.01737189 C24,6.00333136 23.9963595,5.98929082 23.9955505,5.97525029 C23.9939326,5.94395995 23.9915056,5.91347194 23.9862471,5.88338508 C23.9822021,5.86051906 23.9773482,5.83885652 23.9712807,5.81759514 C23.9644043,5.79111871 23.9563144,5.76424111 23.9462019,5.73856699 C23.938112,5.7165033 23.9292131,5.69564307 23.9191007,5.67518401 C23.9073703,5.64991105 23.8940219,5.62664388 23.8798645,5.60297555 C23.8677296,5.5833188 23.8555947,5.56366205 23.8418418,5.54560993 C23.8256619,5.52354624 23.8082686,5.50348833 23.7896617,5.48302927 C23.7734819,5.46497715 23.7568975,5.44772735 23.7390997,5.43127987 C23.7310097,5.42405902 23.7249423,5.4156347 23.7168523,5.40841386 L17.5818516,0.193358217 C17.4350193,0.0685980396 17.2485463,0 17.0551969,0 L6.47154197,0 C6.26727116,0 6.07068579,0.0766212021 5.92102203,0.214619597 L0.258068866,5.42967524 C0.254023899,5.4328845 0.251192422,5.4376984 0.247551953,5.44130882 C0.23218108,5.45615167 0.21883269,5.47259916 0.204675307,5.48824432 C0.185259468,5.51030802 0.165439132,5.53197056 0.148854769,5.55563889 C0.136719869,5.57208637 0.12701195,5.59013849 0.116495036,5.6081906 C0.101124164,5.63346356 0.0865622841,5.65833537 0.0744273844,5.68400949 C0.065528458,5.70366624 0.0582475182,5.72332298 0.0509665785,5.74338089 C0.0412586588,5.77065964 0.0323597324,5.79833955 0.0254832892,5.82561831 C0.0202248327,5.84607737 0.0165843628,5.86653644 0.0129438929,5.88739666 C0.00808993309,5.91868699 0.00485395985,5.94917501 0.00364046989,5.98046534 C0.00323597324,5.99290125 0,6.00413367 0,6.01656957 C0,6.02459274 0.00202248327,6.03141243 0.00242697993,6.03943559 C0.00323597324,6.07233055 0.00728093978,6.1044232 0.0121348996,6.13731817 C0.0149663762,6.15537029 0.0165843628,6.17422472 0.0206293294,6.19227683 C0.0275057725,6.22356717 0.0384271822,6.25405519 0.0493485918,6.28414204 C0.0554160417,6.30139184 0.0598655049,6.31944396 0.0671464446,6.33669376 C0.0800903376,6.36557714 0.0970791971,6.39325706 0.11366356,6.42133812 C0.122966983,6.43698329 0.130247923,6.45343077 0.140360339,6.46827362 C5.09921279,13.3725696 8.81835213,18.5507916 11.2977784,22.0029396 C11.5360995,22.3347582 11.8045753,22.4957395 12.0127416,22.4951497 C12.220908,22.4944644 12.4904714,22.3318354 12.7293363,21.9985554 C15.2023775,18.5480057 18.9119393,13.3721811 23.8580217,6.47108173 C23.8717746,6.45062267 23.881078,6.4301636 23.8919994,6.41050685 C23.9065613,6.38563505 23.9223366,6.36036209 23.9336625,6.33468797 Z M16.1644953,6.81968814 L11.9900898,19.6206439 L7.70566127,6.81968814 L16.1644953,6.81968814 Z M9.16670318,5.21505564 L11.9925168,2.41256497 L14.745521,5.21505564 L9.16670318,5.21505564 Z M6.00070787,6.81968814 L9.42841252,17.0616563 L2.34446261,6.81968814 L6.00070787,6.81968814 Z M17.8645947,6.81968814 L21.6547284,6.81968814 L14.4834072,17.1880211 L17.8645947,6.81968814 Z M21.0042978,5.21505564 L17.0046349,5.21505564 L13.4580082,1.6046325 L16.7566784,1.6046325 L21.0042978,5.21505564 Z M6.78907185,1.6046325 L10.5189355,1.6046325 L6.87846561,5.21505564 L2.86869027,5.21505564 L6.78907185,1.6046325 Z" id="形状"></path>
                        </g>
                    </g>
                </g>
            </g>
        </g>
    </g>
</svg>