<?xml version="1.0" encoding="UTF-8"?>
<svg width="39px" height="38px" viewBox="0 0 39 38" version="1.1" xmlns="http://www.w3.org/2000/svg" xmlns:xlink="http://www.w3.org/1999/xlink">
    <!-- Generator: Sketch 60 (88103) - https://sketch.com -->
    <title>矩形备份 6</title>
    <desc>Created with Sketch.</desc>
    <g id="页面-1" stroke="none" stroke-width="1" fill="none" fill-rule="evenodd">
        <g id="实时视频-回放中备份-8" transform="translate(-97.000000, -699.000000)" fill="#787878" fill-rule="nonzero">
            <g id="图文回答" transform="translate(0.000000, 461.000000)">
                <g id="编组-23" transform="translate(87.250000, 228.000000)">
                    <g id="编组-26" transform="translate(10.000000, 10.000000)">
                        <path d="M7,31 C5.8954305,31 5,30.1045695 5,29 L5,20 C5,18.8954305 5.8954305,18 7,18 L13,18 C13.1834929,18 13.3612143,18.0247107 13.5300181,18.0709858 L13.5290527,10 C13.5290527,8.8954305 14.4244832,8 15.5290527,8 L21.5290527,8 C22.6336222,8 23.5290527,8.8954305 23.5290527,10 L23.528885,15.059614 C23.6846572,15.0206739 23.8476657,15 24.0155029,15 L30.0155029,15 C31.1200724,15 32.0155029,15.8954305 32.0155029,17 L32.0155029,29 C32.0155029,30.1045695 31.1200724,31 30.0155029,31 L7,31 Z M12.8955029,19.6 L7.09550293,19.6 C6.81936055,19.6 6.59550293,19.8238576 6.59550293,20.1 L6.59550293,28.9 C6.59550293,29.1761424 6.81936055,29.4 7.09550293,29.4 L13.3955029,29.4 L13.3955029,20.1 C13.3955029,19.8238576 13.1716453,19.6 12.8955029,19.6 Z M21.4255029,9.6 L15.6255029,9.6 C15.3493606,9.6 15.1255029,9.82385763 15.1255029,10.1 L15.1255029,29.4 L21.9255029,29.4 L21.9255029,10.1 C21.9255029,9.82385763 21.7016453,9.6 21.4255029,9.6 Z M29.9155029,16.6 L24.1155029,16.6 C23.8393606,16.6 23.6155029,16.8238576 23.6155029,17.1 L23.6155029,29.4 L29.9155029,29.4 C30.1916453,29.4 30.4155029,29.1761424 30.4155029,28.9 L30.4155029,17.1 C30.4155029,16.8238576 30.1916453,16.6 29.9155029,16.6 Z" id="形状结合" transform="translate(18.507751, 19.500000) scale(-1, 1) translate(-18.507751, -19.500000) "></path>
                    </g>
                </g>
            </g>
        </g>
    </g>
</svg>