<?xml version="1.0" encoding="UTF-8"?>
<svg width="38px" height="38px" viewBox="0 0 38 38" version="1.1" xmlns="http://www.w3.org/2000/svg" xmlns:xlink="http://www.w3.org/1999/xlink">
    <!-- Generator: Sketch 60 (88103) - https://sketch.com -->
    <title>矩形备份 6</title>
    <desc>Created with Sketch.</desc>
    <g id="页面-1" stroke="none" stroke-width="1" fill="none" fill-rule="evenodd">
        <g id="实时视频-回放中备份-8" transform="translate(-26.000000, -699.000000)" fill="#787878" fill-rule="nonzero">
            <g id="图文回答" transform="translate(0.000000, 461.000000)">
                <g id="编组-24" transform="translate(16.000000, 228.000000)">
                    <g id="编组-25" transform="translate(10.000000, 10.000000)">
                        <g id="homepage" transform="translate(7.000000, 7.000000)">
                            <path d="M23.7198282,10.2029369 L12.541792,0.207932975 C12.2316344,-0.0693109918 11.7682719,-0.0693109918 11.4581801,0.207932975 L0.280143873,10.2029369 C-0.0611807502,10.5081534 -0.0953723903,11.0379557 0.203804461,11.3863051 C0.502981312,11.7344532 1.02236548,11.7694022 1.3636901,11.4641185 L2.22919887,10.6902772 L2.22919887,23.161493 C2.22919887,23.6245501 2.59715352,24 3.05111329,24 L9.28010684,24 L14.7198653,24 L20.9487931,24 C21.4027528,24 21.7707075,23.6245501 21.7707075,23.161493 L21.7707075,10.6903442 L22.6362163,11.4642527 C22.7922485,11.6036461 22.9854313,11.6722024 23.1776277,11.6722024 C23.4061857,11.6722024 23.6335601,11.5755394 23.7960361,11.3863722 C24.0954103,11.0379557 24.0612186,10.5082205 23.7198282,10.2029369 Z M10.1020213,22.323053 L10.1020213,15.4155662 L13.8978851,15.4155662 L13.8978851,22.323053 L10.1020213,22.323053 L10.1020213,22.323053 Z M20.1270101,9.22691468 L20.1270101,22.323053 L15.5419112,22.323053 L15.5419112,14.5770591 C15.5419112,14.114002 15.173825,13.7385521 14.7199968,13.7385521 L9.28023834,13.7385521 C8.82634432,13.7385521 8.45832392,14.114002 8.45832392,14.5770591 L8.45832392,22.323053 L3.87309347,22.323053 L3.87309347,9.22691468 C3.87309347,9.2247681 3.87283046,9.22275568 3.87283046,9.22067619 L11.9999861,1.95350339 L20.1272819,9.22060911 C20.1272819,9.22282276 20.1270101,9.2247681 20.1270101,9.22691468 Z" id="形状"></path>
                            <path d="M9.71117166,9.62435967 C9.71117166,10.1887193 10.1686104,10.646158 10.73297,10.646158 L13.26703,10.646158 C13.8313079,10.646158 14.2888283,10.1887193 14.2888283,9.62435967 C14.2888283,9.06 13.8313079,8.60256131 13.26703,8.60256131 L10.73297,8.60256131 C10.1686921,8.60256131 9.71117166,9.06 9.71117166,9.62435967 Z" id="路径"></path>
                        </g>
                    </g>
                </g>
            </g>
        </g>
    </g>
</svg>