<?xml version="1.0" encoding="UTF-8"?>
<svg width="38px" height="38px" viewBox="0 0 38 38" version="1.1" xmlns="http://www.w3.org/2000/svg" xmlns:xlink="http://www.w3.org/1999/xlink">
    <!-- Generator: Sketch 60 (88103) - https://sketch.com -->
    <title>矩形备份 6</title>
    <desc>Created with Sketch.</desc>
    <g id="页面-1" stroke="none" stroke-width="1" fill="none" fill-rule="evenodd">
        <g id="实时视频-回放中备份-8" transform="translate(-311.000000, -699.000000)" fill="#787878" fill-rule="nonzero">
            <g id="图文回答" transform="translate(0.000000, 461.000000)">
                <g id="编组-24备份" transform="translate(301.000000, 228.000000)">
                    <g id="编组-29" transform="translate(10.000000, 10.000000)">
                        <path d="M19.5136081,7.33118845 C19.7002675,7.43169734 19.8533348,7.58476463 19.9538437,7.771424 L32.1401084,30.4030585 C32.4237664,30.9298518 32.2266662,31.5868524 31.6998729,31.8705104 C31.5420221,31.9555069 31.3655446,32 31.1862647,32 L6.81373526,32 C6.21542678,32 5.73040192,31.5149751 5.73040192,30.9166667 C5.73040192,30.7373868 5.77489499,30.5609093 5.85989156,30.4030585 L18.0461563,7.771424 C18.3298143,7.24463067 18.9868148,7.0475305 19.5136081,7.33118845 Z M19,9.42754821 L7.72060288,30.375 L30.2793971,30.375 L19,9.42754821 Z M19,25 C19.5522847,25 20,25.4477153 20,26 C20,26.5522847 19.5522847,27 19,27 C18.4477153,27 18,26.5522847 18,26 C18,25.4477153 18.4477153,25 19,25 Z M19,17 C19.5522847,17 20,17.4477153 20,18 L20,23 C20,23.5522847 19.5522847,24 19,24 C18.4477153,24 18,23.5522847 18,23 L18,18 C18,17.4477153 18.4477153,17 19,17 Z" id="形状结合"></path>
                    </g>
                </g>
            </g>
        </g>
    </g>
</svg>