<?xml version="1.0" encoding="UTF-8"?>
<svg width="38px" height="38px" viewBox="0 0 38 38" version="1.1" xmlns="http://www.w3.org/2000/svg" xmlns:xlink="http://www.w3.org/1999/xlink">
    <!-- Generator: Sketch 60 (88103) - https://sketch.com -->
    <title>矩形备份 6</title>
    <desc>Created with Sketch.</desc>
    <g id="页面-1" stroke="none" stroke-width="1" fill="none" fill-rule="evenodd">
        <g id="实时视频-回放中备份-8" transform="translate(-172.000000, -699.000000)" fill="#787878" fill-rule="nonzero" stroke="#787778" stroke-width="0.2">
            <g id="图文回答" transform="translate(0.000000, 461.000000)">
                <g id="编组-17" transform="translate(162.000000, 228.000000)">
                    <g id="编组-22" transform="translate(10.000000, 10.000000)">
                        <path d="M26.1473684,5.75 C28.6061159,5.75 30.60599,7.7499234 30.60599,10.2086717 C30.60599,12.6673612 28.6060744,14.6672932 26.1473684,14.6672932 C24.8391309,14.6672932 23.6223319,14.0963917 22.7824784,13.1291825 L22.7824784,13.1291825 L15.424728,17.3771036 C15.5859942,17.8421712 15.6696491,18.3319979 15.6696491,18.8321303 C15.6696491,19.3323682 15.5860095,19.8222025 15.4247444,20.2871665 L15.4247444,20.2871665 L22.7824693,24.5350729 C23.6222512,23.5678629 24.8390853,22.9969674 26.1473684,22.9969674 C28.6060991,22.9969674 30.60599,24.9969241 30.60599,27.4556391 C30.60599,29.91432 28.606083,31.9142105 26.1473684,31.9142105 C23.688637,31.9142105 21.6887469,29.9143533 21.6887469,27.4556391 C21.6887469,26.9554075 21.7724427,26.4655184 21.9337941,26.0003953 L21.9337941,26.0003953 L14.5761754,21.7524473 C13.7363217,22.7197422 12.5194254,23.2907018 11.2110777,23.2907018 C8.75237172,23.2907018 6.75245614,21.2907697 6.75245614,18.8320802 C6.75245614,16.3733907 8.75237172,14.3734586 11.2110777,14.3734586 C12.5194258,14.3734586 13.7363224,14.9444185 14.5761761,15.9117139 L14.5761761,15.9117139 L21.9337944,11.6638138 C21.7724475,11.1986948 21.6887469,10.7087732 21.6887469,10.2085714 C21.6887469,7.74987367 23.6886205,5.75 26.1473684,5.75 Z M26.1473684,24.4403008 C24.4847118,24.4403008 23.1320802,25.7929825 23.1320802,27.455589 C23.1320802,29.1181454 24.4847619,30.4707769 26.1473684,30.4707769 C27.8099749,30.4707769 29.1626566,29.1181955 29.1626566,27.455589 C29.1626566,25.7929825 27.8099749,24.4403008 26.1473684,24.4403008 Z M11.2110777,15.816792 C9.54842105,15.816792 8.19578947,17.1694737 8.19578947,18.8320802 C8.19578947,20.4946867 9.54847118,21.8473684 11.2110777,21.8473684 C12.8736842,21.8473684 14.2263659,20.4946867 14.2263659,18.8320802 C14.2263659,17.1694737 12.8736842,15.816792 11.2110777,15.816792 Z M26.1473684,7.19338346 C24.484812,7.19338346 23.1320802,8.54596491 23.1320802,10.2085714 C23.1320802,11.8711779 24.4847619,13.2238596 26.1473684,13.2238596 C27.8100251,13.2238596 29.1626566,11.8711779 29.1626566,10.2085714 C29.1626566,8.54601504 27.8099749,7.19338346 26.1473684,7.19338346 Z" id="形状结合"></path>
                    </g>
                </g>
            </g>
        </g>
    </g>
</svg>