<?xml version="1.0" encoding="UTF-8"?>
<svg width="12px" height="12px" viewBox="0 0 12 12" version="1.1" xmlns="http://www.w3.org/2000/svg" xmlns:xlink="http://www.w3.org/1999/xlink">
    <title>out_link</title>
    <g id="页面-1" stroke="none" stroke-width="1" fill="none" fill-rule="evenodd">
        <g id="横屏直播讲师端-推荐卡片-外链卡片" transform="translate(-466.000000, -192.000000)" fill="#FFFFFF" fill-rule="nonzero">
            <g id="编组-9" transform="translate(437.000000, 0.000000)">
                <g id="编组-13" transform="translate(0.000000, 60.000000)">
                    <g id="编组-5备份-2" transform="translate(16.000000, 118.000000)">
                        <g id="编组-4备份-3" transform="translate(10.000000, 11.000000)">
                            <g id="out_link" transform="translate(3.000000, 3.000000)">
                                <path d="M5.77420482,5.06709804 C5.96947054,5.26235661 5.96947633,5.5789391 5.77421775,5.77420482 C5.24800501,6.30043681 5.23681831,7.13484311 5.73976392,7.63778871 L5.75472536,7.6562902 L5.77421129,7.67223608 L8.17950076,10.0775256 C8.68243202,10.5804568 9.51683364,10.5692701 10.0430519,10.0430519 C10.5341907,9.55191308 10.5766729,8.79231855 10.1712346,8.28431765 L10.0774992,8.17950076 L7.9892624,6.09126392 C7.79400025,5.89600177 7.79400025,5.57941928 7.9892624,5.38415714 C8.16282875,5.21059078 8.43225315,5.19130563 8.62712129,5.32630169 L8.69636918,5.38415714 L10.7845994,7.47238734 C11.6823904,8.37014462 11.6627269,9.83759039 10.7501587,10.7501587 C9.87907682,11.6212405 8.50241326,11.678761 7.59824153,10.9013702 L7.47239398,10.7846323 L5.0671045,8.37934286 L5.0506481,8.36202927 C5.0445452,8.35649561 5.03854599,8.35078435 5.03265714,8.3448955 C4.1348829,7.44712126 4.15455648,5.97968591 5.06709804,5.06711097 C5.26235661,4.87184525 5.5789391,4.87183946 5.77420482,5.06709804 Z M4.41191266,1.11734672 L4.53776334,1.2340855 L6.94302707,3.63934135 L6.94302707,3.63934135 C7.84080131,4.53711558 7.82112773,6.00455093 6.90858617,6.91712587 C6.7133276,7.11239159 6.39674511,7.11239738 6.20147939,6.9171388 C6.00621367,6.72188023 6.00620788,6.40529774 6.20146646,6.21003202 C6.7276792,5.68380003 6.7388659,4.84939373 6.23592029,4.34644813 L3.83066046,1.94119619 C3.32770643,1.43825161 2.49330242,1.44943594 1.96708501,1.97565335 C1.47595432,2.46677686 1.43346878,3.22639333 1.83889655,3.73439324 L1.93262948,3.83920954 L4.02086896,5.92744639 C4.21613123,6.12270841 4.21613143,6.4392909 4.0208694,6.63455317 C3.84730316,6.80811963 3.57787877,6.82740495 3.38301055,6.69240902 L3.31376262,6.63455361 L1.22552691,4.54632053 C0.327749329,3.64856319 0.347420246,2.1810912 1.25998082,1.26854398 C2.13105915,0.397465644 3.50772016,0.339949164 4.41191266,1.11734672 Z" id="形状结合"></path>
                            </g>
                        </g>
                    </g>
                </g>
            </g>
        </g>
    </g>
</svg>