<?xml version="1.0" encoding="UTF-8"?>
<svg width="74px" height="74px" viewBox="0 0 74 74" version="1.1" xmlns="http://www.w3.org/2000/svg" xmlns:xlink="http://www.w3.org/1999/xlink">
    <!-- Generator: Sketch 57.1 (83088) - https://sketch.com -->
    <title>消息 (1)</title>
    <desc>Created with Sketch.</desc>
    <g id="页面-1" stroke="none" stroke-width="1" fill="none" fill-rule="evenodd">
        <g id="问题区-未回答为空情况" transform="translate(-147.000000, -450.000000)" fill-rule="nonzero">
            <g id="图文回答" transform="translate(0.000000, 212.000000)">
                <g id="消息-(1)" transform="translate(147.000000, 238.000000)">
                    <g id="编组-15" transform="translate(0.580918, 0.580918)">
                        <path d="M68.5917184,72.6918461 C68.3924067,72.6918461 68.2073315,72.6633729 68.0080197,72.6206633 L52.8745625,68.7198474 C47.7778761,71.3251368 42.0832544,72.6918461 36.3316865,72.6918461 C16.3008546,72.6918461 0,56.3909914 0,36.345923 C0,16.3008546 16.3008546,0 36.345923,0 C56.3909914,0 72.6918461,16.3008546 72.6918461,36.345923 C72.6918461,43.8770602 70.4282339,51.0522836 66.1287945,57.1882385 L70.7699112,69.5598041 C71.0688789,70.3712877 70.8980402,71.2824272 70.328578,71.9230721 C69.8730083,72.4213515 69.2465999,72.6918461 68.5917184,72.6918461 Z" id="路径" fill="#B5CCFF" opacity="0.19921875"></path>
                        <path d="M19.4560768,40.0331906 C20.7658397,40.787728 22.3888069,40.787728 23.7128065,40.0331906 C25.0225695,39.2786532 25.8340531,37.8692343 25.8340531,36.345923 C25.8340531,34.8226117 25.0225695,33.4274294 23.7128065,32.6586555 C22.4030435,31.9041181 20.7800763,31.9041181 19.4560768,32.6586555 C18.1463138,33.4274294 17.3348302,34.8226117 17.3348302,36.345923 C17.3348302,37.8692343 18.1463138,39.2644167 19.4560768,40.0331906 Z M32.0891933,36.345923 C32.0891933,37.8692343 32.9006769,39.2644167 34.2104399,40.0331906 C35.5202029,40.787728 37.1431701,40.787728 38.4671696,40.0331906 C39.7769326,39.2786532 40.5884162,37.8692343 40.5884162,36.345923 C40.5884162,34.8226117 39.7769326,33.4274294 38.4671696,32.6586555 C37.1574066,31.9041181 35.5344394,31.9041181 34.2104399,32.6586555 C32.9006769,33.4274294 32.0891933,34.8226117 32.0891933,36.345923 M48.9658713,40.0331906 C50.2756343,40.787728 51.8986015,40.787728 53.222601,40.0331906 C54.532364,39.2786532 55.3438476,37.8692343 55.3438476,36.345923 C55.3438476,34.8226117 54.532364,33.4274294 53.222601,32.6586555 C51.912838,31.9041181 50.2898708,31.9041181 48.9658713,32.6586555 C47.6561083,33.4274294 46.8446247,34.8226117 46.8446247,36.345923 C46.8446247,37.8692343 47.6561083,39.2644167 48.9658713,40.0331906 Z" id="形状" fill="#6C9BFF" opacity="0.400000006"></path>
                    </g>
                </g>
            </g>
        </g>
    </g>
</svg>