<?xml version="1.0" encoding="UTF-8"?>
<svg width="15px" height="19px" viewBox="0 0 15 19" version="1.1" xmlns="http://www.w3.org/2000/svg" xmlns:xlink="http://www.w3.org/1999/xlink">
    <!-- Generator: Sketch 60 (88103) - https://sketch.com -->
    <title>PPT</title>
    <desc>Created with Sketch.</desc>
    <g id="页面-1" stroke="none" stroke-width="1" fill="none" fill-rule="evenodd">
        <g id="实时视频-直播中备份-16" transform="translate(-30.000000, -534.000000)" fill="#5E5C5C" fill-rule="nonzero">
            <g id="编组-6备份" transform="translate(16.000000, 525.000000)">
                <g id="PPT" transform="translate(14.000000, 9.000000)">
                    <path d="M13.1152192,17.1613687 L1.87690592,17.1613687 L1.87690592,1.29998713 L7.96022411,1.29998713 L7.96022411,5.24645592 C7.96853298,5.96094904 8.5457162,6.53813416 9.26020696,6.54644306 L13.107527,6.54644306 L13.1152192,17.1613687 Z M9.55633166,9.02188439 C9.31180988,8.70390884 9.00834556,8.49753516 8.64578911,8.40246413 C8.40994415,8.33910838 7.90362175,8.30769231 7.12674712,8.30769231 L5.07692308,8.30769231 L5.07692308,14.633992 L6.35436049,14.633992 L6.35436049,12.2475672 L7.18711086,12.2475672 C7.76546583,12.2475672 8.20701127,12.2173479 8.51189679,12.1569842 C8.73637212,12.1079901 8.95710744,12.0079822 9.17440195,11.8570355 C9.39162167,11.7060139 9.57061849,11.4981442 9.71169162,11.2334264 C9.85268996,10.9688582 9.92307692,10.6422058 9.92307692,10.2538433 C9.92307692,9.75051292 9.80085343,9.33971035 9.55633166,9.02188439 Z M8.46245387,10.7631577 C8.36596165,10.9040064 8.23304173,11.0076795 8.06324533,11.0738028 C7.89352373,11.1398514 7.55692293,11.1729879 7.05351775,11.1729879 L6.35436049,11.1729879 L6.35436049,9.37778364 L6.97138715,9.37778364 C7.43170744,9.37778364 7.73808896,9.39214527 7.89053172,9.42086854 C8.09765341,9.45841823 8.26887102,9.55176885 8.40403494,9.701444 C8.53942326,9.85096955 8.6069679,10.040962 8.6069679,10.2711221 C8.60704261,10.4581226 8.5587965,10.6220846 8.46245387,10.7631577 Z M9.32732215,2.71862323 L11.8323458,5.20223764 L9.32732215,5.20223764 L9.32732215,2.71862323 Z M14.0382839,5.43840772 L9.03834991,0.384611585 C8.7545776,0.0970436573 8.37536392,0.0107542569 8.11528516,0 L1.89229033,0 C1.17179888,0 0.585349875,0.579542582 0.576923077,1.29998713 L0.576923077,17.1613687 C0.585349875,17.8818132 1.17179888,18.4615385 1.89229033,18.4615385 L13.1229114,18.4615385 C13.4689497,18.4655254 13.8020335,18.3299022 14.0467373,18.0851976 C14.2914411,17.840493 14.4270638,17.5074081 14.4228942,17.1613687 L14.4228942,6.35378329 C14.4225564,6.00944223 14.2839898,5.67965261 14.0382839,5.43840772 Z" id="形状"></path>
                </g>
            </g>
        </g>
    </g>
</svg>