<?xml version="1.0" encoding="UTF-8"?>
<svg width="12px" height="8px" viewBox="0 0 12 8" version="1.1" xmlns="http://www.w3.org/2000/svg" xmlns:xlink="http://www.w3.org/1999/xlink">
    <!-- Generator: Sketch 64 (93537) - https://sketch.com -->
    <title>对</title>
    <desc>Created with Sketch.</desc>
    <defs>
        <polygon id="path-1" points="0.00128571429 0.00557937472 11.9823997 0.00557937472 11.9823997 7.58571704 0.00128571429 7.58571704"></polygon>
    </defs>
    <g id="答题弹窗-竖屏" stroke="none" stroke-width="1" fill="none" fill-rule="evenodd">
        <g id="单选题-回答错误-有解析" transform="translate(-38.000000, -240.000000)">
            <g id="弹窗" transform="translate(28.000000, 152.000000)">
                <g id="编组-8" transform="translate(0.000000, 24.000000)">
                    <g id="对勾" transform="translate(8.000000, 60.000000)">
                        <g id="duigou" transform="translate(2.000000, 4.000000)">
                            <mask id="mask-2" fill="white">
                                <use xlink:href="#path-1"></use>
                            </mask>
                            <g id="Clip-2"></g>
                            <path d="M3.32980714,7.36564286 C3.11031429,7.10507143 3.14464286,6.71590714 3.40521429,6.49652143 L10.9686643,0.150235714 C11.2292357,-0.0692357143 11.6183786,-0.0349285714 11.8377857,0.225664286 C12.0571714,0.486235714 12.0229286,0.875378571 11.7623571,1.09476429 L4.19890714,7.44105 C3.93833571,7.66054286 3.54919286,7.62621429 3.32980714,7.36564286 Z" id="Fill-1" fill="#09BB07" mask="url(#mask-2)"></path>
                            <path d="M4.18695,7.44105 C3.92635714,7.66054286 3.53721429,7.62621429 3.31774286,7.36564286 L0.144642857,3.58223571 C-0.0748285714,3.32166429 -0.0405214286,2.93252143 0.220071429,2.71305 C0.480642857,2.49364286 0.869785714,2.52797143 1.08917143,2.78854286 L4.26402857,6.57195 C4.48174286,6.83252143 4.44919286,7.22166429 4.18695,7.44105 Z" id="Fill-3" fill="#09BB07" mask="url(#mask-2)"></path>
                        </g>
                    </g>
                </g>
            </g>
        </g>
    </g>
</svg>