<?xml version="1.0" encoding="UTF-8"?>
<svg width="38px" height="38px" viewBox="0 0 38 38" version="1.1" xmlns="http://www.w3.org/2000/svg" xmlns:xlink="http://www.w3.org/1999/xlink">
    <title>矩形备份 6</title>
    <g id="页面-1" stroke="none" stroke-width="1" fill="none" fill-rule="evenodd">
        <g id="讲师端-更多-签到" transform="translate(-311.000000, -682.000000)">
            <g id="编组-9" transform="translate(0.000000, 513.000000)">
                <g id="编组-19备份-3" transform="translate(301.000000, 159.000000)">
                    <g id="编组-24" transform="translate(10.000000, 10.000000)">
                        <g id="编组" transform="translate(5.000000, 5.000000)">
                            <g id="icon/图标/icon_kec" transform="translate(1.000000, 2.000000)">
                                <path d="M22,2.75 C22.8974627,2.75 23.7099627,3.11376864 24.298097,3.70190296 C24.8862314,4.29003728 25.25,5.10253728 25.25,6 L25.25,6 L25.25,20 C25.25,20.8974627 24.8862314,21.7099627 24.298097,22.298097 C23.7099627,22.8862314 22.8974627,23.25 22,23.25 L22,23.25 L4,23.25 C3.10253728,23.25 2.29003728,22.8862314 1.70190296,22.298097 C1.11376864,21.7099627 0.75,20.8974627 0.75,20 L0.75,20 L0.75,6 C0.75,5.10253728 1.11376864,4.29003728 1.70190296,3.70190296 C2.29003728,3.11376864 3.10253728,2.75 4,2.75 L4,2.75 Z" id="Rectangle" stroke="#666666" stroke-width="1.5" fill-rule="nonzero"></path>
                                <rect id="Rectangle" fill="#666666" fill-rule="nonzero" x="0" y="7" width="26" height="1.5" rx="0.75"></rect>
                                <rect id="Rectangle-Copy" fill="#666666" fill-rule="nonzero" x="7" y="0" width="1.5" height="5" rx="0.75"></rect>
                                <rect id="Rectangle-Copy-2" fill="#666666" fill-rule="nonzero" x="18" y="0" width="1.5" height="5" rx="0.75"></rect>
                                <polyline id="路径-3" stroke="#666666" stroke-width="1.5" stroke-linecap="round" stroke-linejoin="round" points="9 15 12 18 18 12"></polyline>
                            </g>
                        </g>
                    </g>
                </g>
            </g>
        </g>
    </g>
</svg>