<?xml version="1.0" encoding="UTF-8"?>
<svg width="18px" height="18px" viewBox="0 0 18 18" version="1.1" xmlns="http://www.w3.org/2000/svg" xmlns:xlink="http://www.w3.org/1999/xlink">
    <!-- Generator: Sketch 60 (88103) - https://sketch.com -->
    <title>编组 11备份</title>
    <desc>Created with Sketch.</desc>
    <defs>
        <linearGradient x1="50%" y1="0%" x2="50%" y2="100%" id="linearGradient-1">
            <stop stop-color="#FFC022" offset="0%"></stop>
            <stop stop-color="#FE8744" offset="100%"></stop>
        </linearGradient>
    </defs>
    <g id="页面-1" stroke="none" stroke-width="1" fill="none" fill-rule="evenodd">
        <g id="讲师端默认状态" transform="translate(-25.000000, -461.000000)">
            <g id="编组-3" transform="translate(16.000000, 419.000000)">
                <g id="编组-11备份" transform="translate(9.000000, 42.000000)">
                    <rect id="Rectangle" opacity="0" x="0.692307692" y="0" width="16.6153846" height="16.6153846"></rect>
                    <path d="M0,8.99964952 C0,13.9701176 4.03065727,18 8.99892792,18 C13.9696932,18 18,13.9701176 18,8.99964952 C18,4.02971751 13.9696932,0 8.99892792,0 C4.03067788,0 0,4.02988243 0,8.99964952 Z" id="路径" fill="url(#linearGradient-1)" fill-rule="nonzero"></path>
                    <path d="M6.46061538,6.88846154 L11.5393846,6.88846154 L11.5393846,8.79784615 L6.46061538,8.79784615 L6.46061538,6.88846154 Z M10.638,8.14846154 L10.638,7.54753846 L7.362,7.54753846 L7.362,8.14846154 L10.638,8.14846154 Z M8.51538462,4.50415385 L9.48461538,4.50415385 L9.48461538,5.59938462 L10.4441538,5.59938462 C10.6476923,5.26984615 10.8221538,4.93061538 10.9772308,4.56230769 L11.8689231,4.87246154 C11.7429231,5.14384615 11.6072308,5.38615385 11.4521538,5.59938462 L13.1192308,5.59938462 L13.1192308,7.63476923 L12.2081538,7.63476923 L12.2081538,6.39415385 L5.79184615,6.39415385 L5.79184615,7.64446154 L4.87107692,7.64446154 L4.87107692,5.59938462 L6.59630769,5.59938462 C6.45092308,5.34738462 6.28615385,5.11476923 6.11169231,4.90153846 L6.984,4.58169231 C7.19723077,4.86276923 7.39107692,5.202 7.56553846,5.59938462 L8.51538462,5.59938462 L8.51538462,4.50415385 Z M12.1112308,9.21461538 L12.1112308,11.8993846 L11.2001538,11.8993846 L11.2001538,10.0287692 L6.80953846,10.0287692 L6.80953846,12.006 L5.89846154,12.006 L5.89846154,9.21461538 L12.1112308,9.21461538 Z M9.63,11.7733846 C10.9093846,12.0350769 12.0627692,12.3549231 13.1095385,12.7426154 L12.5861538,13.5470769 C11.4715385,13.0818462 10.3278462,12.7232308 9.16476923,12.4712308 L9.63,11.7733846 Z M8.59292308,10.3292308 L9.51369231,10.4067692 C9.378,11.5116923 9.09692308,12.2386154 8.65107692,12.5972308 C8.16646154,13.0624615 7.03246154,13.3532308 5.23938462,13.4889231 L4.87107692,12.6553846 C6.38307692,12.5972308 7.37169231,12.3936923 7.84661538,12.0447692 C8.27307692,11.7152308 8.51538462,11.1433846 8.59292308,10.3292308 Z" id="赏" fill="#FFFFFF" fill-rule="nonzero"></path>
                </g>
            </g>
        </g>
    </g>
</svg>