<?xml version="1.0" encoding="UTF-8"?>
<svg width="24px" height="24px" viewBox="0 0 24 24" version="1.1" xmlns="http://www.w3.org/2000/svg" xmlns:xlink="http://www.w3.org/1999/xlink">
    <!-- Generator: Sketch 60 (88103) - https://sketch.com -->
    <title>编组 10</title>
    <desc>Created with Sketch.</desc>
    <g id="页面-1" stroke="none" stroke-width="1" fill="none" fill-rule="evenodd">
        <g id="讲师端-加号展开2" transform="translate(-16.000000, -563.000000)" fill="#787878">
            <g id="编组-9" transform="translate(0.000000, 547.000000)">
                <g id="编组-10" transform="translate(16.000000, 16.000000)">
                    <path d="M0,11.9995327 C0,18.6268234 5.37420969,24 11.9985706,24 C18.6262576,24 24,18.6268234 24,11.9995327 C24,5.37295668 18.6262576,0 11.9985706,0 C5.37423717,0 0,5.37317658 0,11.9995327 Z M1.5,11.9995327 C1.5,6.20212067 6.20214732,1.5 11.9985706,1.5 C17.7978604,1.5 22.5,6.2014137 22.5,11.9995327 C22.5,17.7983201 17.7979066,22.5 11.9985706,22.5 C6.2020034,22.5 1.5,17.7977629 1.5,11.9995327 Z" id="Path备份" fill-rule="nonzero"></path>
                    <rect id="矩形备份-4" x="11" y="6.5" width="2" height="11" rx="1"></rect>
                    <rect id="矩形备份-5" transform="translate(12.000000, 12.000000) rotate(-270.000000) translate(-12.000000, -12.000000) " x="11" y="6.5" width="2" height="11" rx="1"></rect>
                </g>
            </g>
        </g>
    </g>
</svg>