<?xml version="1.0" encoding="UTF-8"?>
<svg width="14px" height="14px" viewBox="0 0 14 14" version="1.1" xmlns="http://www.w3.org/2000/svg" xmlns:xlink="http://www.w3.org/1999/xlink">
    <title>提示</title>
    <g id="页面-1" stroke="none" stroke-width="1" fill="none" fill-rule="evenodd">
        <g id="直播回放-回放已过有效期" transform="translate(-76.000000, -467.000000)">
            <g id="编组-6" transform="translate(0.000000, 452.000000)">
                <g id="编组" transform="translate(76.000000, 15.000000)">
                    <g id="huangsegantanhao" transform="translate(0.875000, 0.875000)">
                        <g id="编组" stroke="#105CFB">
                            <path d="M0,6.13100549 C0,9.51042195 2.73956311,12.2499851 6.11905427,12.2499851 C9.49847073,12.2499851 12.2380338,9.51042195 12.2380338,6.13100549 C12.2380338,2.75151433 9.49847073,0.0119512195 6.11905427,0.0119512195 C2.73956311,0.0119512195 0,2.75151433 0,6.13100549 Z" id="Fill-1"></path>
                        </g>
                        <path d="M6.11905427,7.58422896 C6.45558567,7.58422896 6.73091189,7.30890274 6.73091189,6.97237134 L6.73091189,3.60689299 C6.73091189,3.27034665 6.45558567,2.99497561 6.11905427,2.99497561 C5.78244817,2.99497561 5.50713689,3.27034665 5.50713689,3.60689299 L5.50713689,6.97237134 C5.50713689,7.30890274 5.78244817,7.58422896 6.11905427,7.58422896 Z M6.11905427,9.26697561 C6.45558567,9.26697561 6.73091189,8.99164939 6.73091189,8.65505823 C6.73091189,8.31851189 6.45558567,8.04320061 6.11905427,8.04320061 C5.78244817,8.04320061 5.50713689,8.31851189 5.50713689,8.65505823 C5.50713689,8.99164939 5.78244817,9.26697561 6.11905427,9.26697561 Z" id="Fill-3" fill="#105CFB" transform="translate(6.119024, 6.130976) scale(1, -1) translate(-6.119024, -6.130976) "></path>
                    </g>
                </g>
            </g>
        </g>
    </g>
</svg>