<?xml version="1.0" encoding="UTF-8"?>
<svg width="14px" height="14px" viewBox="0 0 14 14" version="1.1" xmlns="http://www.w3.org/2000/svg" xmlns:xlink="http://www.w3.org/1999/xlink">
    <!-- Generator: Sketch 57.1 (83088) - https://sketch.com -->
    <title>矩形</title>
    <desc>Created with Sketch.</desc>
    <g id="页面-1" stroke="none" stroke-width="1" fill="none" fill-rule="evenodd">
        <g id="讲师端默认状态" transform="translate(-339.000000, -604.000000)">
            <g id="置顶备份" transform="translate(346.000000, 611.000000) scale(1, -1) translate(-346.000000, -611.000000) translate(333.000000, 598.000000)">
                <g id="编组-20" transform="translate(6.000000, 6.000000)">
                    <path d="M7.44621165,3.02237728 L7.53033009,3.09499543 L11.5303301,7.09499543 C11.8232233,7.38788865 11.8232233,7.86276239 11.5303301,8.15565561 C11.2640635,8.42192217 10.8473998,8.44612822 10.5537883,8.22827376 L10.4696699,8.15565561 L7.75,5.436 L7.75,13.25 C7.75,13.6296958 7.46784612,13.943491 7.10177056,13.9931534 L7,14 C6.58578644,14 6.25,13.6642136 6.25,13.25 L6.25,13.25 L6.25,5.434 L3.53033009,8.15565561 C3.23743687,8.44854883 2.76256313,8.44854883 2.46966991,8.15565561 C2.20340335,7.88938904 2.1791973,7.47272536 2.39705176,7.17911387 L2.46966991,7.09499543 L6.46966991,3.09499543 C6.73593648,2.82872887 7.15260016,2.80452282 7.44621165,3.02237728 Z M2.5,0 L11.5,0 C11.9142136,0 12.25,0.335786438 12.25,0.75 C12.25,1.12969577 11.9678461,1.44349096 11.6017706,1.49315338 L11.5,1.5 L2.5,1.5 C2.08578644,1.5 1.75,1.16421356 1.75,0.75 C1.75,0.370304234 2.03215388,0.0565090391 2.39822944,0.006846616 L2.5,0 L11.5,0 Z" id="形状结合" fill="#979797" fill-rule="nonzero"></path>
                    <rect id="矩形" x="0" y="0" width="14" height="14"></rect>
                </g>
            </g>
        </g>
    </g>
</svg>