<?xml version="1.0" encoding="UTF-8"?>
<svg width="44px" height="44px" viewBox="0 0 44 44" version="1.1" xmlns="http://www.w3.org/2000/svg" xmlns:xlink="http://www.w3.org/1999/xlink">
    <title>编组 5</title>
    <g id="页面-1" stroke="none" stroke-width="1" fill="none" fill-rule="evenodd" opacity="0.800000012">
        <g id="有效期后进入直播间提示" transform="translate(-166.000000, -145.000000)" fill="#FFFFFF" fill-rule="nonzero">
            <g id="009db07998a1b482ddb31c3e04b8d32c4bc0697b8d58-rzkBwW" transform="translate(0.000000, 88.000000)">
                <g id="编组" transform="translate(90.000000, 57.000000)">
                    <g id="电视" transform="translate(76.000000, 0.000000)">
                        <path d="M39.0532544,43.9349112 L4.8816568,43.9349112 C2.19674556,43.9349112 0,41.7381657 0,39.0532544 L0,13.0177515 C0,10.3328402 2.19674556,8.13609467 4.8816568,8.13609467 L39.0532544,8.13609467 C41.7381657,8.13609467 43.9349112,10.3328402 43.9349112,13.0177515 L43.9349112,39.0532544 C43.9349112,41.7381657 41.7381657,43.9349112 39.0532544,43.9349112 Z M4.5947,11.103576 C3.69972959,11.103576 2.96748148,11.8358241 2.96748148,12.7307945 L2.96748148,39.3402106 C2.96748148,40.235181 3.69972959,40.9674301 4.5947,40.9674301 L39.3402106,40.9674301 C40.235181,40.9674301 40.9674301,40.235181 40.9674301,39.3402106 L40.9674301,12.7307945 C40.9674301,11.8358241 40.235181,11.103576 39.3402106,11.103576 L4.5947,11.103576 Z M17.407567,10.4034583 L9.43786982,2.76627219 C8.78698225,2.11538462 8.78698225,1.13905325 9.43786982,0.48816568 C10.0887574,-0.162721893 11.0650888,-0.162721893 11.7159763,0.48816568 L19.6856735,8.1253518 C20.3365611,8.77623937 20.3365611,9.75257073 19.6856735,10.4034583 C19.3602297,10.7289021 18.953425,10.891624 18.5466202,10.891624 C18.1398155,10.891624 17.7330108,10.7289021 17.407567,10.4034583 Z M25.5151162,10.891624 C25.1083115,10.891624 24.7015068,10.7289021 24.376063,10.4034583 C23.7251754,9.75257073 23.7251754,8.77623937 24.376063,8.1253518 L32.2189349,0.48816568 C32.8698225,-0.162721893 33.8461538,-0.162721893 34.4970414,0.48816568 C35.147929,1.13905325 35.147929,2.11538462 34.4970414,2.76627219 L26.6541695,10.4034583 C26.3287257,10.7289021 25.921921,10.891624 25.5151162,10.891624 Z" id="形状"></path>
                        <path d="M18.7504781,32.5217391 C17.8600026,32.5217391 17.2173913,31.8229545 17.2173913,30.8583928 L17.2173913,21.7503028 C17.2173913,20.7857411 17.8630626,20.0869565 18.7504781,20.0869565 C19.0656636,20.0869565 19.3869693,20.1765443 19.6990947,20.3527336 L27.7837562,24.9067786 C28.3651664,25.2322808 28.6956522,25.7429311 28.6956522,26.3043478 C28.6956522,26.8657645 28.3621063,27.3764148 27.7837562,27.7019171 L19.6990947,32.2559621 C19.3869693,32.4321514 19.0687237,32.5217391 18.7504781,32.5217391 Z M19.3016103,22.6430732 L19.2989343,29.9656224 L25.7989343,26.3069593 L19.3016103,22.6430732 Z" id="suspend_icon"></path>
                    </g>
                </g>
            </g>
        </g>
    </g>
</svg>