<?xml version="1.0" encoding="UTF-8"?>
<svg width="64px" height="83px" viewBox="0 0 64 83" version="1.1" xmlns="http://www.w3.org/2000/svg" xmlns:xlink="http://www.w3.org/1999/xlink">
    <!-- Generator: Sketch 57.1 (83088) - https://sketch.com -->
    <title>编组 11</title>
    <desc>Created with Sketch.</desc>
    <g id="页面-1" stroke="none" stroke-width="1" fill="none" fill-rule="evenodd">
        <g id="上传视频为空的情况" transform="translate(-156.000000, -442.000000)">
            <g id="图文回答" transform="translate(0.000000, 212.000000)">
                <g id="编组-11" transform="translate(156.000000, 230.000000)">
                    <path d="M44.6063516,0 L2.14069517,0 C0.958411031,0 1.7408297e-13,0.965898618 1.7408297e-13,2.84018433 L1.7408297e-13,81.1059908 C1.7408297e-13,81.6147465 0.958411031,82.5806452 2.14069517,82.5806452 L61.8593048,82.5806452 C63.041589,82.5806452 64,81.6147465 64,81.1059908 L64,19.1380645 C64,18.1117051 63.8639203,17.7813825 63.6239517,17.5380645 L45.5164763,0.378986175 C45.2750445,0.137142857 44.9472825,0 44.6063516,0 Z" id="路径" fill="#E6EEFF" fill-rule="nonzero"></path>
                    <path d="M26.2236479,53.6774194 C24.7821742,53.6774194 23.7419355,52.5172446 23.7419355,50.9158068 L23.7419355,35.7938707 C23.7419355,34.1924328 24.7871277,33.0322581 26.2236479,33.0322581 C26.7338602,33.0322581 27.2539796,33.1809984 27.7592384,33.4735211 L40.8464323,41.0344892 C41.7876007,41.5749125 42.3225806,42.4227325 42.3225806,43.3548387 C42.3225806,44.2869449 41.7826472,45.134765 40.8464323,45.6751882 L27.7592384,53.2361563 C27.2539796,53.528679 26.7388137,53.6774194 26.2236479,53.6774194 Z" id="路径" fill="#6C9BFF" opacity="0.400000006"></path>
                    <polygon id="路径" fill="#D1E0FF" fill-rule="nonzero" points="45.3657234 0.235455069 45.3657234 17.7086348 64 17.7086348"></polygon>
                </g>
            </g>
        </g>
    </g>
</svg>