<?xml version="1.0" encoding="UTF-8"?>
<svg xmlns="http://www.w3.org/2000/svg" xmlns:xlink="http://www.w3.org/1999/xlink" width="142px" height="24px" viewBox="0 0 142 24" version="1.1">
  <title>邀请达人榜</title>
  <defs>
    <linearGradient x1="-2.22044605e-14%" y1="50%" x2="100%" y2="50%" id="linearGradient-1">
      <stop stop-color="#FFA4D0" offset="0%"></stop>
      <stop stop-color="#758AFF" offset="0%"></stop>
      <stop stop-color="#CC7CFF" offset="47.075912%"></stop>
      <stop stop-color="#FF70C7" offset="100%"></stop>
    </linearGradient>
    <path d="M25.32,21.76 L25.71,18.91 L10.14,18.91 L8.07,18.4 L10.41,18.4 L11.73,14.89 L13.68,14.89 L13.32,17.38 L11.97,18.46 L14.97,18.46 C15.55,18.46 16.03,18.295 16.41,17.965 C16.79,17.635 17.01,17.24 17.07,16.78 L17.07,16.78 L17.64,12.79 L12.51,12.79 L12.78,12.13 L17.7,12.13 L18,9.85 L14.97,9.85 L15.12,8.86 L17.85,8.86 L18.81,2.02 L15.66,2.02 L16.44,0.7 L11.91,0.7 L12.48,1.33 L12.09,2.02 L9.81,2.02 L8.85,8.86 L11.55,8.86 L11.4,9.85 L8.37,9.85 L8.07,12.13 L9.57,12.13 L7.23,18.19 L6.51,18.01 L8.22,5.8 L2.82,5.8 L2.43,8.65 L3.39,8.65 L1.98,18.79 L-8.52651283e-14,21.73 L4.47,21.73 L5.01,20.89 L8.04,21.76 L25.32,21.76 Z M20.28,18.34 L21.81,15.67 L22.86,18.34 L25.8,18.34 L23.76,13.36 L25.89,9.79 L26.46,5.71 L27.33,5.71 L27.72,2.92 L23.94,2.92 L24.84,0.7 L21.18,0.7 L18.48,7.69 L22.02,7.69 L22.8,5.71 L23.34,5.71 L22.95,8.62 L22.29,9.73 L21.78,8.44 L18.42,8.44 L20.28,13.21 L17.28,18.34 L20.28,18.34 Z M8.49,4.66 L8.04,1.24 L3.54,1.24 L3.99,4.66 L8.49,4.66 Z M15.36,4.54 L12.48,4.54 L12.6,3.82 L15.48,3.82 L15.36,4.54 Z M15,7.15 L12.12,7.15 L12.21,6.49 L15.09,6.49 L15,7.15 Z M54.58,10.36 L54.91,8.08 L49.03,8.08 L49.15,7.33 L53.62,7.33 L53.95,5.05 L49.45,5.05 L49.57,4.3 L55,4.3 L55.3,2.05 L49.87,2.05 L50.08,0.73 L43.63,0.73 L44.71,1.84 L44.68,2.05 L39.28,2.05 L38.98,4.3 L44.35,4.3 L44.26,5.05 L39.52,5.05 L39.19,7.33 L43.93,7.33 L43.81,8.08 L37.78,8.08 L37.45,10.36 L54.58,10.36 Z M37,4.96 L36.25,1.24 L31.54,1.24 L32.29,4.96 L37,4.96 Z M29.62,22.18 L36.34,20.38 L36.79,17.29 L35.32,17.71 L36.88,6.52 L30.19,6.52 L29.77,9.46 L31.39,9.46 L29.62,22.18 Z M41.47,22.18 L41.92,18.91 L47.89,18.91 L47.68,20.53 L46.33,22.18 L50.86,22.18 C51.4,22.18 51.81,21.995 52.09,21.625 C52.37,21.255 52.55,20.78 52.63,20.2 L52.63,20.2 L53.95,10.93 L38.14,10.93 L36.55,22.18 L41.47,22.18 Z M48.58,14.02 L42.61,14.02 L42.73,13.21 L48.7,13.21 L48.58,14.02 Z M48.19,16.9 L42.22,16.9 L42.34,16.03 L48.31,16.03 L48.19,16.9 Z M71.63,17.65 L75.5,9.43 L77.18,17.65 L82.46,17.65 L80.42,7.54 L83.99,7.54 L84.41,4.54 L77.81,4.54 L79.61,0.7 L73.28,0.7 L73.82,1.33 L72.35,4.54 L68,4.54 L67.58,7.54 L70.97,7.54 L66.32,17.65 L71.63,17.65 Z M66.83,4.66 L65.6,1.24 L60.98,1.24 L62.21,4.66 L66.83,4.66 Z M62.51,21.76 L63.29,20.68 L66.83,21.76 L82.79,21.76 L83.18,18.91 L69.23,18.91 L65.12,17.68 L66.77,5.8 L60.41,5.8 L60.02,8.65 L61.25,8.65 L59.84,18.76 L57.68,21.76 L62.51,21.76 Z M92.82,22.27 L100.56,10.21 L106.5,22.27 L112.2,22.27 L103.74,5.29 L106.71,0.67 L99.87,0.67 L100.5,1.42 L87.12,22.27 L92.82,22.27 Z M121.06,22.27 L123.19,7.18 L125.56,7.18 L125.98,4.33 L123.61,4.33 L124.12,0.67 L119.59,0.67 L120.19,1.54 L119.8,4.33 L117.4,4.33 L116.98,7.18 L119.38,7.18 L117.25,22.27 L121.06,22.27 Z M141.16,4.63 L141.49,2.29 L136.72,2.29 L136.96,0.7 L131.44,0.7 L132.4,1.84 L132.34,2.29 L127.81,2.29 L127.48,4.63 L141.16,4.63 Z M129.46,10.9 L129.64,9.52 L137.59,9.52 L137.41,10.9 L141.16,10.9 L141.7,6.94 L138.94,6.94 L139.81,5.23 L136.09,5.23 L135.19,6.94 L133.18,6.94 L132.79,5.23 L129.04,5.23 L129.43,6.94 L126.31,6.94 L125.77,10.9 L129.46,10.9 Z M116.59,21.19 L118.9,7.96 L117.13,7.96 L114.79,21.19 L116.59,21.19 Z M124.09,19.48 L125.23,7.96 L123.46,7.96 L122.29,19.48 L124.09,19.48 Z M128.83,22.27 L131.02,17.2 L135.64,17.2 L135.25,20.05 L133.42,22 L137.62,22 C138,22 138.35,21.87 138.67,21.61 C138.99,21.35 139.17,21.02 139.21,20.62 L139.21,20.62 L140.02,14.92 L132.01,14.92 L132.28,14.32 L140.59,14.32 L140.98,11.5 L135.64,11.5 L135.88,9.91 L131.14,9.91 L130.9,11.5 L125.56,11.5 L125.17,14.32 L128.11,14.32 L124.66,22.27 L128.83,22.27 Z" id="path-2"></path>
  </defs>
  <g id="企业直播1.1-20210621" stroke="none" stroke-width="1" fill="none" fill-rule="evenodd">
    <g id="直播首页-邀请达人榜" transform="translate(-116.000000, -276.000000)" fill-rule="nonzero">
      <g id="弹窗" transform="translate(0.000000, 251.000000)">
        <g id="邀请达人榜" transform="translate(115.940000, 25.000000)">
          <use fill="#FF6E00" xlink:href="#path-2"></use>
          <use fill="url(#linearGradient-1)" xlink:href="#path-2"></use>
        </g>
      </g>
    </g>
  </g>
</svg>
